<?xml version="1.0" encoding="UTF-8" standalone="no"?>
<!DOCTYPE svg PUBLIC "-//W3C//DTD SVG 1.1//EN"
 "http://www.w3.org/Graphics/SVG/1.1/DTD/svg11.dtd">
<!-- Generated by graphviz version 2.43.0 (0)
 -->
<!-- Title: %3 Pages: 1 -->
<svg width="3251pt" height="1420pt"
 viewBox="0.00 0.00 3250.53 1420.00" xmlns="http://www.w3.org/2000/svg" xmlns:xlink="http://www.w3.org/1999/xlink">
<g id="graph0" class="graph" transform="scale(1 1) rotate(0) translate(4 1416)">
<title>%3</title>
<polygon fill="white" stroke="transparent" points="-4,4 -4,-1416 3246.53,-1416 3246.53,4 -4,4"/>
<!-- description -->
<g id="node1" class="node">
<title>description</title>
<g id="a_node1"><a xlink:href="algebra.html#description" xlink:title="Карточки по алгебре">
<ellipse fill="none" stroke="black" cx="219.68" cy="-18" rx="111.58" ry="18"/>
<text text-anchor="middle" x="219.68" y="-14.3" font-family="Times,serif" font-size="14.00">Карточки по алгебре</text>
</a>
</g>
</g>
<!-- matrix_mul -->
<g id="node2" class="node">
<title>matrix_mul</title>
<g id="a_node2"><a xlink:href="algebra.html#matrix_mul" xlink:title="Умножение матриц">
<ellipse fill="none" stroke="black" cx="219.68" cy="-72" rx="104.78" ry="18"/>
<text text-anchor="middle" x="219.68" y="-68.3" font-family="Times,serif" font-size="14.00">Умножение матриц</text>
</a>
</g>
</g>
<!-- matrix_stair -->
<g id="node3" class="node">
<title>matrix_stair</title>
<g id="a_node3"><a xlink:href="algebra.html#matrix_stair" xlink:title="Ступенчатый вид матриц">
<ellipse fill="none" stroke="black" cx="219.68" cy="-126" rx="131.88" ry="18"/>
<text text-anchor="middle" x="219.68" y="-122.3" font-family="Times,serif" font-size="14.00">Ступенчатый вид матриц</text>
</a>
</g>
</g>
<!-- matrix_canon -->
<g id="node4" class="node">
<title>matrix_canon</title>
<g id="a_node4"><a xlink:href="algebra.html#matrix_canon" xlink:title="Канонический вид матрицы">
<ellipse fill="none" stroke="black" cx="798.38" cy="-149" rx="144.07" ry="18"/>
<text text-anchor="middle" x="798.38" y="-145.3" font-family="Times,serif" font-size="14.00">Канонический вид матрицы</text>
</a>
</g>
</g>
<!-- matrix_stair&#45;&gt;matrix_canon -->
<g id="edge1" class="edge">
<title>matrix_stair&#45;&gt;matrix_canon</title>
<path fill="none" stroke="black" d="M346.53,-131.02C436.06,-134.59 556.64,-139.4 650.56,-143.14"/>
<polygon fill="black" stroke="black" points="650.59,-146.65 660.72,-143.55 650.87,-139.65 650.59,-146.65"/>
</g>
<!-- matrix_gauss -->
<g id="node5" class="node">
<title>matrix_gauss</title>
<g id="a_node5"><a xlink:href="algebra.html#matrix_gauss" xlink:title="Теорема о методе Гаусса">
<ellipse fill="none" stroke="black" cx="1418.03" cy="-103" rx="130.78" ry="18"/>
<text text-anchor="middle" x="1418.03" y="-99.3" font-family="Times,serif" font-size="14.00">Теорема о методе Гаусса</text>
</a>
</g>
</g>
<!-- matrix_stair&#45;&gt;matrix_gauss -->
<g id="edge2" class="edge">
<title>matrix_stair&#45;&gt;matrix_gauss</title>
<path fill="none" stroke="black" d="M350.42,-123.51C577.51,-119.14 1045.03,-110.15 1278.3,-105.67"/>
<polygon fill="black" stroke="black" points="1278.62,-109.16 1288.55,-105.47 1278.48,-102.16 1278.62,-109.16"/>
</g>
<!-- matrix_canon&#45;&gt;matrix_gauss -->
<g id="edge3" class="edge">
<title>matrix_canon&#45;&gt;matrix_gauss</title>
<path fill="none" stroke="black" d="M922.89,-139.8C1030.23,-131.81 1184.97,-120.28 1292.59,-112.27"/>
<polygon fill="black" stroke="black" points="1293.14,-115.74 1302.85,-111.5 1292.62,-108.76 1293.14,-115.74"/>
</g>
<!-- matrix_transform -->
<g id="node6" class="node">
<title>matrix_transform</title>
<g id="a_node6"><a xlink:href="algebra.html#matrix_transform" xlink:title="Элементарные преобразования строк">
<ellipse fill="none" stroke="black" cx="798.38" cy="-57" rx="192.27" ry="18"/>
<text text-anchor="middle" x="798.38" y="-53.3" font-family="Times,serif" font-size="14.00">Элементарные преобразования строк</text>
</a>
</g>
</g>
<!-- matrix_transform&#45;&gt;matrix_gauss -->
<g id="edge4" class="edge">
<title>matrix_transform&#45;&gt;matrix_gauss</title>
<path fill="none" stroke="black" d="M949.29,-68.16C1054.4,-75.99 1193.28,-86.34 1292.34,-93.71"/>
<polygon fill="black" stroke="black" points="1292.17,-97.21 1302.4,-94.46 1292.69,-90.23 1292.17,-97.21"/>
</g>
<!-- perm -->
<g id="node7" class="node">
<title>perm</title>
<g id="a_node7"><a xlink:href="algebra.html#perm" xlink:title="Перестановка">
<ellipse fill="none" stroke="black" cx="219.68" cy="-264" rx="77.99" ry="18"/>
<text text-anchor="middle" x="219.68" y="-260.3" font-family="Times,serif" font-size="14.00">Перестановка</text>
</a>
</g>
</g>
<!-- subst -->
<g id="node8" class="node">
<title>subst</title>
<g id="a_node8"><a xlink:href="algebra.html#subst" xlink:title="Подстановка">
<ellipse fill="none" stroke="black" cx="798.38" cy="-993" rx="72.29" ry="18"/>
<text text-anchor="middle" x="798.38" y="-989.3" font-family="Times,serif" font-size="14.00">Подстановка</text>
</a>
</g>
</g>
<!-- subst_sign -->
<g id="node9" class="node">
<title>subst_sign</title>
<g id="a_node9"><a xlink:href="algebra.html#subst_sign" xlink:title="Знак подстановки">
<ellipse fill="none" stroke="black" cx="1418.03" cy="-1101" rx="96.68" ry="18"/>
<text text-anchor="middle" x="1418.03" y="-1097.3" font-family="Times,serif" font-size="14.00">Знак подстановки</text>
</a>
</g>
</g>
<!-- subst&#45;&gt;subst_sign -->
<g id="edge5" class="edge">
<title>subst&#45;&gt;subst_sign</title>
<path fill="none" stroke="black" d="M850.99,-1005.43C920.34,-1021.78 1047.58,-1050.61 1157.4,-1069 1211.88,-1078.12 1273.19,-1085.8 1322.55,-1091.35"/>
<polygon fill="black" stroke="black" points="1322.25,-1094.83 1332.58,-1092.46 1323.03,-1087.88 1322.25,-1094.83"/>
</g>
<!-- subst_even -->
<g id="node10" class="node">
<title>subst_even</title>
<g id="a_node10"><a xlink:href="algebra.html#subst_even" xlink:title="Чётность подстановки">
<ellipse fill="none" stroke="black" cx="1964.89" cy="-1124" rx="116.18" ry="18"/>
<text text-anchor="middle" x="1964.89" y="-1120.3" font-family="Times,serif" font-size="14.00">Чётность подстановки</text>
</a>
</g>
</g>
<!-- subst&#45;&gt;subst_even -->
<g id="edge6" class="edge">
<title>subst&#45;&gt;subst_even</title>
<path fill="none" stroke="black" d="M862.34,-1001.47C933.77,-1010.86 1053.81,-1026.01 1157.4,-1036 1388.61,-1058.3 1450.32,-1031.35 1678.66,-1074 1695.1,-1077.07 1698.35,-1081.25 1714.66,-1085 1762.97,-1096.1 1817.28,-1105.01 1862.84,-1111.5"/>
<polygon fill="black" stroke="black" points="1862.64,-1115 1873.03,-1112.93 1863.61,-1108.07 1862.64,-1115"/>
</g>
<!-- matrix_det -->
<g id="node11" class="node">
<title>matrix_det</title>
<g id="a_node11"><a xlink:href="algebra.html#matrix_det" xlink:title="Определитель">
<ellipse fill="none" stroke="black" cx="1418.03" cy="-870" rx="78.79" ry="18"/>
<text text-anchor="middle" x="1418.03" y="-866.3" font-family="Times,serif" font-size="14.00">Определитель</text>
</a>
</g>
</g>
<!-- subst&#45;&gt;matrix_det -->
<g id="edge7" class="edge">
<title>subst&#45;&gt;matrix_det</title>
<path fill="none" stroke="black" d="M855.28,-981.87C968.51,-959.32 1224.62,-908.32 1348.02,-883.74"/>
<polygon fill="black" stroke="black" points="1348.98,-887.12 1358.11,-881.73 1347.61,-880.26 1348.98,-887.12"/>
</g>
<!-- simm_group -->
<g id="node12" class="node">
<title>simm_group</title>
<g id="a_node12"><a xlink:href="algebra.html#simm_group" xlink:title="Симметрическая группа">
<ellipse fill="none" stroke="black" cx="1964.89" cy="-341" rx="129.18" ry="18"/>
<text text-anchor="middle" x="1964.89" y="-337.3" font-family="Times,serif" font-size="14.00">Симметрическая группа</text>
</a>
</g>
</g>
<!-- subst&#45;&gt;simm_group -->
<g id="edge8" class="edge">
<title>subst&#45;&gt;simm_group</title>
<path fill="none" stroke="black" d="M832.19,-976.87C894.33,-946.87 1034.02,-881.98 1157.4,-843 1383.53,-771.55 1520.97,-906.12 1678.66,-729 1732.27,-668.79 1657.89,-425.25 1714.66,-368 1756.27,-326.03 1823.86,-320.99 1878.17,-325.51"/>
<polygon fill="black" stroke="black" points="1877.86,-329 1888.14,-326.46 1878.52,-322.03 1877.86,-329"/>
</g>
<!-- subst_sign&#45;&gt;subst_even -->
<g id="edge11" class="edge">
<title>subst_sign&#45;&gt;subst_even</title>
<path fill="none" stroke="black" d="M1512.69,-1104.95C1603.74,-1108.8 1742.47,-1114.65 1842.05,-1118.86"/>
<polygon fill="black" stroke="black" points="1842.03,-1122.36 1852.17,-1119.28 1842.33,-1115.37 1842.03,-1122.36"/>
</g>
<!-- det_decomposition -->
<g id="node14" class="node">
<title>det_decomposition</title>
<g id="a_node14"><a xlink:href="algebra.html#det_decomposition" xlink:title="Разложение определителя по столбцу (строке)">
<ellipse fill="none" stroke="black" cx="1964.89" cy="-1032" rx="235.06" ry="18"/>
<text text-anchor="middle" x="1964.89" y="-1028.3" font-family="Times,serif" font-size="14.00">Разложение определителя по столбцу (строке)</text>
</a>
</g>
</g>
<!-- matrix_det&#45;&gt;det_decomposition -->
<g id="edge12" class="edge">
<title>matrix_det&#45;&gt;det_decomposition</title>
<path fill="none" stroke="black" d="M1460,-885.3C1511.98,-905.25 1603.86,-942.31 1678.66,-982 1695.43,-990.9 1696.75,-998.7 1714.66,-1005 1731.2,-1010.82 1748.71,-1015.47 1766.47,-1019.19"/>
<polygon fill="black" stroke="black" points="1765.86,-1022.64 1776.35,-1021.16 1767.23,-1015.77 1765.86,-1022.64"/>
</g>
<!-- matrix_inv -->
<g id="node15" class="node">
<title>matrix_inv</title>
<g id="a_node15"><a xlink:href="algebra.html#matrix_inv" xlink:title="Обратная матрица">
<ellipse fill="none" stroke="black" cx="1964.89" cy="-924" rx="100.18" ry="18"/>
<text text-anchor="middle" x="1964.89" y="-920.3" font-family="Times,serif" font-size="14.00">Обратная матрица</text>
</a>
</g>
</g>
<!-- matrix_det&#45;&gt;matrix_inv -->
<g id="edge13" class="edge">
<title>matrix_det&#45;&gt;matrix_inv</title>
<path fill="none" stroke="black" d="M1490.54,-877.09C1586.89,-886.64 1758.75,-903.67 1866.74,-914.37"/>
<polygon fill="black" stroke="black" points="1866.69,-917.88 1876.99,-915.39 1867.38,-910.92 1866.69,-917.88"/>
</g>
<!-- matrix_nondegeneracy -->
<g id="node16" class="node">
<title>matrix_nondegeneracy</title>
<g id="a_node16"><a xlink:href="algebra.html#matrix_nondegeneracy" xlink:title="Критерий невырожденности квадратной матрицы">
<ellipse fill="none" stroke="black" cx="1964.89" cy="-740" rx="250.46" ry="18"/>
<text text-anchor="middle" x="1964.89" y="-736.3" font-family="Times,serif" font-size="14.00">Критерий невырожденности квадратной матрицы</text>
</a>
</g>
</g>
<!-- matrix_det&#45;&gt;matrix_nondegeneracy -->
<g id="edge14" class="edge">
<title>matrix_det&#45;&gt;matrix_nondegeneracy</title>
<path fill="none" stroke="black" d="M1483.47,-860C1537.62,-849.89 1615.98,-831.23 1678.66,-800 1696.8,-790.96 1695.94,-779.79 1714.66,-772 1732.32,-764.65 1751.23,-758.88 1770.47,-754.36"/>
<polygon fill="black" stroke="black" points="1771.24,-757.78 1780.24,-752.18 1769.71,-750.95 1771.24,-757.78"/>
</g>
<!-- SLE_nonzero_criteria -->
<g id="node17" class="node">
<title>SLE_nonzero_criteria</title>
<g id="a_node17"><a xlink:href="algebra.html#SLE_nonzero_criteria" xlink:title="Критерий существования ненулевого решения">
<ellipse fill="none" stroke="black" cx="1964.89" cy="-870" rx="235.06" ry="18"/>
<text text-anchor="middle" x="1964.89" y="-866.3" font-family="Times,serif" font-size="14.00">Критерий существования ненулевого решения</text>
</a>
</g>
</g>
<!-- matrix_det&#45;&gt;SLE_nonzero_criteria -->
<g id="edge15" class="edge">
<title>matrix_det&#45;&gt;SLE_nonzero_criteria</title>
<path fill="none" stroke="black" d="M1496.81,-870C1555.31,-870 1638.9,-870 1719.22,-870"/>
<polygon fill="black" stroke="black" points="1719.51,-873.5 1729.51,-870 1719.51,-866.5 1719.51,-873.5"/>
</g>
<!-- lin_group -->
<g id="node18" class="node">
<title>lin_group</title>
<g id="a_node18"><a xlink:href="algebra.html#lin_group" xlink:title="Общая и специальная линейные группы">
<ellipse fill="none" stroke="black" cx="2484.44" cy="-287" rx="204.16" ry="18"/>
<text text-anchor="middle" x="2484.44" y="-283.3" font-family="Times,serif" font-size="14.00">Общая и специальная линейные группы</text>
</a>
</g>
</g>
<!-- matrix_det&#45;&gt;lin_group -->
<g id="edge16" class="edge">
<title>matrix_det&#45;&gt;lin_group</title>
<path fill="none" stroke="black" d="M1490.82,-863.08C1681.76,-844.38 2189.43,-792.47 2215.11,-767 2298.26,-684.55 2197.46,-610.08 2251.11,-506 2296.59,-417.79 2392.09,-345.85 2445.4,-310.56"/>
<polygon fill="black" stroke="black" points="2447.44,-313.41 2453.9,-305.02 2443.61,-307.55 2447.44,-313.41"/>
</g>
<!-- group_homo -->
<g id="node19" class="node">
<title>group_homo</title>
<g id="a_node19"><a xlink:href="algebra.html#group_homo" xlink:title="Гомоморфизм групп">
<ellipse fill="none" stroke="black" cx="1964.89" cy="-395" rx="109.38" ry="18"/>
<text text-anchor="middle" x="1964.89" y="-391.3" font-family="Times,serif" font-size="14.00">Гомоморфизм групп</text>
</a>
</g>
</g>
<!-- matrix_det&#45;&gt;group_homo -->
<g id="edge17" class="edge">
<title>matrix_det&#45;&gt;group_homo</title>
<path fill="none" stroke="black" d="M1486.19,-860.9C1546.41,-849 1632.23,-822.06 1678.66,-762 1748.93,-671.1 1645.51,-597.76 1714.66,-506 1754.12,-453.63 1823.78,-425.44 1879.45,-410.59"/>
<polygon fill="black" stroke="black" points="1880.5,-413.94 1889.31,-408.06 1878.76,-407.16 1880.5,-413.94"/>
</g>
<!-- subst_inv -->
<g id="node13" class="node">
<title>subst_inv</title>
<g id="a_node13"><a xlink:href="algebra.html#subst_inv" xlink:title="Число инверсий в подстановке">
<ellipse fill="none" stroke="black" cx="798.38" cy="-1124" rx="157.87" ry="18"/>
<text text-anchor="middle" x="798.38" y="-1120.3" font-family="Times,serif" font-size="14.00">Число инверсий в подстановке</text>
</a>
</g>
</g>
<!-- subst_inv&#45;&gt;subst_sign -->
<g id="edge9" class="edge">
<title>subst_inv&#45;&gt;subst_sign</title>
<path fill="none" stroke="black" d="M948.9,-1118.43C1061.42,-1114.24 1212.8,-1108.61 1312.56,-1104.89"/>
<polygon fill="black" stroke="black" points="1312.79,-1108.38 1322.66,-1104.51 1312.53,-1101.39 1312.79,-1108.38"/>
</g>
<!-- subst_inv&#45;&gt;subst_even -->
<g id="edge10" class="edge">
<title>subst_inv&#45;&gt;subst_even</title>
<path fill="none" stroke="black" d="M955.34,-1126.12C1018.12,-1126.88 1091.2,-1127.63 1157.4,-1128 1389.07,-1129.29 1446.99,-1129.62 1678.66,-1128 1731.13,-1127.63 1789.02,-1126.88 1838.86,-1126.13"/>
<polygon fill="black" stroke="black" points="1839.1,-1129.63 1849.05,-1125.98 1838.99,-1122.63 1839.1,-1129.63"/>
</g>
<!-- fake_decomoposition -->
<g id="node20" class="node">
<title>fake_decomoposition</title>
<g id="a_node20"><a xlink:href="algebra.html#fake_decomoposition" xlink:title="Фальшивое разложение">
<ellipse fill="none" stroke="black" cx="2484.44" cy="-1045" rx="125.38" ry="18"/>
<text text-anchor="middle" x="2484.44" y="-1041.3" font-family="Times,serif" font-size="14.00">Фальшивое разложение</text>
</a>
</g>
</g>
<!-- det_decomposition&#45;&gt;fake_decomoposition -->
<g id="edge18" class="edge">
<title>det_decomposition&#45;&gt;fake_decomoposition</title>
<path fill="none" stroke="black" d="M2188.76,-1037.6C2243.95,-1038.98 2301.37,-1040.43 2350.71,-1041.67"/>
<polygon fill="black" stroke="black" points="2350.7,-1045.17 2360.78,-1041.92 2350.87,-1038.17 2350.7,-1045.17"/>
</g>
<!-- matrix_inv_formula -->
<g id="node24" class="node">
<title>matrix_inv_formula</title>
<g id="a_node24"><a xlink:href="algebra.html#matrix_inv_formula" xlink:title="Формула вычисления обратной матрицы">
<ellipse fill="none" stroke="black" cx="2484.44" cy="-964" rx="206.06" ry="18"/>
<text text-anchor="middle" x="2484.44" y="-960.3" font-family="Times,serif" font-size="14.00">Формула вычисления обратной матрицы</text>
</a>
</g>
</g>
<!-- matrix_inv&#45;&gt;matrix_inv_formula -->
<g id="edge23" class="edge">
<title>matrix_inv&#45;&gt;matrix_inv_formula</title>
<path fill="none" stroke="black" d="M2057.22,-931.06C2129.66,-936.66 2232.77,-944.63 2319.43,-951.32"/>
<polygon fill="black" stroke="black" points="2319.41,-954.83 2329.65,-952.11 2319.95,-947.85 2319.41,-954.83"/>
</g>
<!-- group_iso -->
<g id="node50" class="node">
<title>group_iso</title>
<g id="a_node50"><a xlink:href="algebra.html#group_iso" xlink:title="Изоморфизм групп">
<ellipse fill="none" stroke="black" cx="2484.44" cy="-191" rx="103.18" ry="18"/>
<text text-anchor="middle" x="2484.44" y="-187.3" font-family="Times,serif" font-size="14.00">Изоморфизм групп</text>
</a>
</g>
</g>
<!-- group_homo&#45;&gt;group_iso -->
<g id="edge60" class="edge">
<title>group_homo&#45;&gt;group_iso</title>
<path fill="none" stroke="black" d="M2045.83,-407.09C2099.34,-410.61 2168.27,-405.76 2215.11,-368 2254.5,-336.25 2214.75,-295.18 2251.11,-260 2285.62,-226.61 2335.53,-209.28 2380.26,-200.32"/>
<polygon fill="black" stroke="black" points="2381.13,-203.72 2390.31,-198.43 2379.83,-196.84 2381.13,-203.72"/>
</g>
<!-- complementary_minor -->
<g id="node21" class="node">
<title>complementary_minor</title>
<g id="a_node21"><a xlink:href="algebra.html#complementary_minor" xlink:title="Дополняющий минор и алгебраическое дополнение">
<ellipse fill="none" stroke="black" cx="1418.03" cy="-1009" rx="260.75" ry="18"/>
<text text-anchor="middle" x="1418.03" y="-1005.3" font-family="Times,serif" font-size="14.00">Дополняющий минор и алгебраическое дополнение</text>
</a>
</g>
</g>
<!-- complementary_minor&#45;&gt;det_decomposition -->
<g id="edge19" class="edge">
<title>complementary_minor&#45;&gt;det_decomposition</title>
<path fill="none" stroke="black" d="M1641.04,-1018.37C1676.41,-1019.86 1712.96,-1021.41 1748.19,-1022.89"/>
<polygon fill="black" stroke="black" points="1748.44,-1026.41 1758.58,-1023.33 1748.73,-1019.41 1748.44,-1026.41"/>
</g>
<!-- complementary_minor&#45;&gt;fake_decomoposition -->
<g id="edge20" class="edge">
<title>complementary_minor&#45;&gt;fake_decomoposition</title>
<path fill="none" stroke="black" d="M1594.25,-1022.32C1622.81,-1026.84 1651.81,-1032.9 1678.66,-1041 1695.78,-1046.17 1697.25,-1054.89 1714.66,-1059 1931.13,-1110.1 1992.76,-1064.8 2215.11,-1059 2262.26,-1057.77 2314.02,-1055.33 2359.39,-1052.82"/>
<polygon fill="black" stroke="black" points="2359.79,-1056.31 2369.58,-1052.25 2359.4,-1049.32 2359.79,-1056.31"/>
</g>
<!-- union_matrix -->
<g id="node22" class="node">
<title>union_matrix</title>
<g id="a_node22"><a xlink:href="algebra.html#union_matrix" xlink:title="Союзная матрица">
<ellipse fill="none" stroke="black" cx="1964.89" cy="-978" rx="96.38" ry="18"/>
<text text-anchor="middle" x="1964.89" y="-974.3" font-family="Times,serif" font-size="14.00">Союзная матрица</text>
</a>
</g>
</g>
<!-- complementary_minor&#45;&gt;union_matrix -->
<g id="edge21" class="edge">
<title>complementary_minor&#45;&gt;union_matrix</title>
<path fill="none" stroke="black" d="M1619.59,-997.59C1702.14,-992.89 1794.16,-987.66 1862.29,-983.78"/>
<polygon fill="black" stroke="black" points="1862.8,-987.26 1872.59,-983.19 1862.4,-980.27 1862.8,-987.26"/>
</g>
<!-- union_matrix&#45;&gt;matrix_inv_formula -->
<g id="edge22" class="edge">
<title>union_matrix&#45;&gt;matrix_inv_formula</title>
<path fill="none" stroke="black" d="M2060.21,-975.45C2120.9,-973.81 2202.2,-971.61 2277.31,-969.58"/>
<polygon fill="black" stroke="black" points="2277.49,-973.07 2287.39,-969.3 2277.3,-966.07 2277.49,-973.07"/>
</g>
<!-- kramer -->
<g id="node23" class="node">
<title>kramer</title>
<g id="a_node23"><a xlink:href="algebra.html#kramer" xlink:title="Формулы Крамера">
<ellipse fill="none" stroke="black" cx="219.68" cy="-960" rx="100.18" ry="18"/>
<text text-anchor="middle" x="219.68" y="-956.3" font-family="Times,serif" font-size="14.00">Формулы Крамера</text>
</a>
</g>
</g>
<!-- matrix_minor -->
<g id="node25" class="node">
<title>matrix_minor</title>
<g id="a_node25"><a xlink:href="algebra.html#matrix_minor" xlink:title="Миноры матрицы">
<ellipse fill="none" stroke="black" cx="219.68" cy="-679" rx="95.58" ry="18"/>
<text text-anchor="middle" x="219.68" y="-675.3" font-family="Times,serif" font-size="14.00">Миноры матрицы</text>
</a>
</g>
</g>
<!-- matrix_ran -->
<g id="node26" class="node">
<title>matrix_ran</title>
<g id="a_node26"><a xlink:href="algebra.html#matrix_ran" xlink:title="Ранг матрицы">
<ellipse fill="none" stroke="black" cx="798.38" cy="-694" rx="78.79" ry="18"/>
<text text-anchor="middle" x="798.38" y="-690.3" font-family="Times,serif" font-size="14.00">Ранг матрицы</text>
</a>
</g>
</g>
<!-- matrix_minor&#45;&gt;matrix_ran -->
<g id="edge24" class="edge">
<title>matrix_minor&#45;&gt;matrix_ran</title>
<path fill="none" stroke="black" d="M314.62,-681.44C424.08,-684.29 603.49,-688.96 710.04,-691.73"/>
<polygon fill="black" stroke="black" points="710.03,-695.23 720.12,-691.99 710.21,-688.23 710.03,-695.23"/>
</g>
<!-- basic_minor -->
<g id="node27" class="node">
<title>basic_minor</title>
<g id="a_node27"><a xlink:href="algebra.html#basic_minor" xlink:title="Базисный минор">
<ellipse fill="none" stroke="black" cx="1418.03" cy="-610" rx="90.98" ry="18"/>
<text text-anchor="middle" x="1418.03" y="-606.3" font-family="Times,serif" font-size="14.00">Базисный минор</text>
</a>
</g>
</g>
<!-- matrix_minor&#45;&gt;basic_minor -->
<g id="edge25" class="edge">
<title>matrix_minor&#45;&gt;basic_minor</title>
<path fill="none" stroke="black" d="M311.58,-673.76C532.03,-661.04 1093.59,-628.65 1320.11,-615.59"/>
<polygon fill="black" stroke="black" points="1320.53,-619.07 1330.31,-615 1320.13,-612.08 1320.53,-619.07"/>
</g>
<!-- matrix_ran&#45;&gt;matrix_nondegeneracy -->
<g id="edge28" class="edge">
<title>matrix_ran&#45;&gt;matrix_nondegeneracy</title>
<path fill="none" stroke="black" d="M868.22,-702.46C940.21,-710.9 1056.54,-723.39 1157.4,-729 1340.55,-739.18 1547.44,-741.83 1705.81,-741.98"/>
<polygon fill="black" stroke="black" points="1706.17,-745.48 1716.18,-741.98 1706.18,-738.48 1706.17,-745.48"/>
</g>
<!-- matrix_ran&#45;&gt;basic_minor -->
<g id="edge26" class="edge">
<title>matrix_ran&#45;&gt;basic_minor</title>
<path fill="none" stroke="black" d="M873.96,-688.95C939.7,-683.5 1037.75,-672.94 1121.4,-654 1137.85,-650.28 1140.95,-645.72 1157.4,-642 1211.38,-629.8 1272.8,-621.97 1322.34,-617.11"/>
<polygon fill="black" stroke="black" points="1322.78,-620.58 1332.41,-616.14 1322.12,-613.61 1322.78,-620.58"/>
</g>
<!-- matrix_ran_theorem -->
<g id="node28" class="node">
<title>matrix_ran_theorem</title>
<g id="a_node28"><a xlink:href="algebra.html#matrix_ran_theorem" xlink:title="Теорема о ранге матрицы">
<ellipse fill="none" stroke="black" cx="2484.44" cy="-633" rx="135.38" ry="18"/>
<text text-anchor="middle" x="2484.44" y="-629.3" font-family="Times,serif" font-size="14.00">Теорема о ранге матрицы</text>
</a>
</g>
</g>
<!-- matrix_ran&#45;&gt;matrix_ran_theorem -->
<g id="edge27" class="edge">
<title>matrix_ran&#45;&gt;matrix_ran_theorem</title>
<path fill="none" stroke="black" d="M852.08,-707.18C1040.26,-752.05 1695.6,-889.5 2215.11,-767 2305.71,-745.64 2400.63,-688.77 2449.65,-656.4"/>
<polygon fill="black" stroke="black" points="2451.6,-659.31 2457.97,-650.84 2447.71,-653.48 2451.6,-659.31"/>
</g>
<!-- Kronecker&#45;Capelli -->
<g id="node29" class="node">
<title>Kronecker&#45;Capelli</title>
<g id="a_node29"><a xlink:href="algebra.html#Kronecker-Capelli" xlink:title="Теорема Кронекера&#45;Капелли">
<ellipse fill="none" stroke="black" cx="1418.03" cy="-702" rx="149.47" ry="18"/>
<text text-anchor="middle" x="1418.03" y="-698.3" font-family="Times,serif" font-size="14.00">Теорема Кронекера&#45;Капелли</text>
</a>
</g>
</g>
<!-- matrix_ran&#45;&gt;Kronecker&#45;Capelli -->
<g id="edge29" class="edge">
<title>matrix_ran&#45;&gt;Kronecker&#45;Capelli</title>
<path fill="none" stroke="black" d="M876.98,-695.01C972.39,-696.24 1136.69,-698.37 1259.08,-699.95"/>
<polygon fill="black" stroke="black" points="1259.26,-703.46 1269.3,-700.09 1259.35,-696.46 1259.26,-703.46"/>
</g>
<!-- SLE_FSS -->
<g id="node30" class="node">
<title>SLE_FSS</title>
<g id="a_node30"><a xlink:href="algebra.html#SLE_FSS" xlink:title="ФСР ОСЛАУ">
<ellipse fill="none" stroke="black" cx="1964.89" cy="-587" rx="69.59" ry="18"/>
<text text-anchor="middle" x="1964.89" y="-583.3" font-family="Times,serif" font-size="14.00">ФСР ОСЛАУ</text>
</a>
</g>
</g>
<!-- matrix_ran&#45;&gt;SLE_FSS -->
<g id="edge30" class="edge">
<title>matrix_ran&#45;&gt;SLE_FSS</title>
<path fill="none" stroke="black" d="M875.32,-690.14C1059.08,-680.64 1524.02,-655.51 1678.66,-637 1755.3,-627.83 1842.6,-611.67 1900.21,-600.21"/>
<polygon fill="black" stroke="black" points="1901.14,-603.59 1910.26,-598.2 1899.77,-596.73 1901.14,-603.59"/>
</g>
<!-- basic_minor_theorem -->
<g id="node31" class="node">
<title>basic_minor_theorem</title>
<g id="a_node31"><a xlink:href="algebra.html#basic_minor_theorem" xlink:title="Теорема о базисном миноре">
<ellipse fill="none" stroke="black" cx="1964.89" cy="-533" rx="145.67" ry="18"/>
<text text-anchor="middle" x="1964.89" y="-529.3" font-family="Times,serif" font-size="14.00">Теорема о базисном миноре</text>
</a>
</g>
</g>
<!-- basic_minor&#45;&gt;basic_minor_theorem -->
<g id="edge31" class="edge">
<title>basic_minor&#45;&gt;basic_minor_theorem</title>
<path fill="none" stroke="black" d="M1508.98,-610.8C1560,-608.77 1624.32,-601.98 1678.66,-583 1696.58,-576.74 1696.75,-566.3 1714.66,-560 1745.45,-549.17 1779.58,-542.37 1812.47,-538.16"/>
<polygon fill="black" stroke="black" points="1813.12,-541.61 1822.63,-536.94 1812.28,-534.66 1813.12,-541.61"/>
</g>
<!-- solution_structure_o -->
<g id="node36" class="node">
<title>solution_structure_o</title>
<g id="a_node36"><a xlink:href="algebra.html#solution_structure_o" xlink:title="Структура общего решения однородной СЛАУ">
<ellipse fill="none" stroke="black" cx="2484.44" cy="-533" rx="233.16" ry="18"/>
<text text-anchor="middle" x="2484.44" y="-529.3" font-family="Times,serif" font-size="14.00">Структура общего решения однородной СЛАУ</text>
</a>
</g>
</g>
<!-- SLE_FSS&#45;&gt;solution_structure_o -->
<g id="edge44" class="edge">
<title>SLE_FSS&#45;&gt;solution_structure_o</title>
<path fill="none" stroke="black" d="M2029.61,-580.35C2105.24,-572.46 2233.83,-559.04 2334.86,-548.5"/>
<polygon fill="black" stroke="black" points="2335.28,-551.98 2344.86,-547.46 2334.55,-545.02 2335.28,-551.98"/>
</g>
<!-- basic_minor_theorem&#45;&gt;matrix_ran_theorem -->
<g id="edge43" class="edge">
<title>basic_minor_theorem&#45;&gt;matrix_ran_theorem</title>
<path fill="none" stroke="black" d="M2089.1,-542.46C2129.46,-546.6 2174.38,-552.3 2215.11,-560 2287.01,-573.59 2367.83,-596.67 2421.81,-613.25"/>
<polygon fill="black" stroke="black" points="2420.98,-616.66 2431.57,-616.27 2423.04,-609.97 2420.98,-616.66"/>
</g>
<!-- lin_comb -->
<g id="node32" class="node">
<title>lin_comb</title>
<g id="a_node32"><a xlink:href="algebra.html#lin_comb" xlink:title="Линейная комбинация">
<ellipse fill="none" stroke="black" cx="219.68" cy="-494" rx="120.48" ry="18"/>
<text text-anchor="middle" x="219.68" y="-490.3" font-family="Times,serif" font-size="14.00">Линейная комбинация</text>
</a>
</g>
</g>
<!-- lin_comb&#45;&gt;basic_minor_theorem -->
<g id="edge35" class="edge">
<title>lin_comb&#45;&gt;basic_minor_theorem</title>
<path fill="none" stroke="black" d="M323.11,-484.73C561.57,-464.87 1172.08,-424.02 1678.66,-475 1752.17,-482.4 1834.76,-500.27 1892.07,-514.23"/>
<polygon fill="black" stroke="black" points="1891.57,-517.71 1902.12,-516.7 1893.24,-510.92 1891.57,-517.71"/>
</g>
<!-- lin_dep -->
<g id="node33" class="node">
<title>lin_dep</title>
<g id="a_node33"><a xlink:href="algebra.html#lin_dep" xlink:title="Линейная зависимость">
<ellipse fill="none" stroke="black" cx="798.38" cy="-540" rx="120.78" ry="18"/>
<text text-anchor="middle" x="798.38" y="-536.3" font-family="Times,serif" font-size="14.00">Линейная зависимость</text>
</a>
</g>
</g>
<!-- lin_comb&#45;&gt;lin_dep -->
<g id="edge32" class="edge">
<title>lin_comb&#45;&gt;lin_dep</title>
<path fill="none" stroke="black" d="M326.12,-502.41C426.46,-510.41 577.14,-522.43 680.96,-530.71"/>
<polygon fill="black" stroke="black" points="680.93,-534.22 691.18,-531.53 681.49,-527.24 680.93,-534.22"/>
</g>
<!-- lin_indep -->
<g id="node34" class="node">
<title>lin_indep</title>
<g id="a_node34"><a xlink:href="algebra.html#lin_indep" xlink:title="Линейно независимые строки">
<ellipse fill="none" stroke="black" cx="1418.03" cy="-556" rx="154.87" ry="18"/>
<text text-anchor="middle" x="1418.03" y="-552.3" font-family="Times,serif" font-size="14.00">Линейно независимые строки</text>
</a>
</g>
</g>
<!-- lin_comb&#45;&gt;lin_indep -->
<g id="edge33" class="edge">
<title>lin_comb&#45;&gt;lin_indep</title>
<path fill="none" stroke="black" d="M264.94,-510.78C315.11,-528.84 399.75,-556.38 475.36,-567 766.75,-607.94 1113.84,-585.88 1294.3,-569.17"/>
<polygon fill="black" stroke="black" points="1294.72,-572.64 1304.35,-568.22 1294.07,-565.67 1294.72,-572.64"/>
</g>
<!-- lin_dep_criteria -->
<g id="node35" class="node">
<title>lin_dep_criteria</title>
<g id="a_node35"><a xlink:href="algebra.html#lin_dep_criteria" xlink:title="Критерий линейной зависимости">
<ellipse fill="none" stroke="black" cx="1418.03" cy="-502" rx="168.97" ry="18"/>
<text text-anchor="middle" x="1418.03" y="-498.3" font-family="Times,serif" font-size="14.00">Критерий линейной зависимости</text>
</a>
</g>
</g>
<!-- lin_comb&#45;&gt;lin_dep_criteria -->
<g id="edge34" class="edge">
<title>lin_comb&#45;&gt;lin_dep_criteria</title>
<path fill="none" stroke="black" d="M340.04,-494.8C551.27,-496.21 991.91,-499.16 1239.09,-500.81"/>
<polygon fill="black" stroke="black" points="1239.23,-504.31 1249.26,-500.88 1239.28,-497.31 1239.23,-504.31"/>
</g>
<!-- lin_comb&#45;&gt;solution_structure_o -->
<g id="edge36" class="edge">
<title>lin_comb&#45;&gt;solution_structure_o</title>
<path fill="none" stroke="black" d="M284.87,-478.8C336.09,-467.48 409.88,-452.99 475.36,-447 1007.93,-398.27 1144.62,-418.55 1678.66,-447 1921.51,-459.94 2203.84,-494.69 2361.26,-515.85"/>
<polygon fill="black" stroke="black" points="2361.07,-519.35 2371.45,-517.22 2362.01,-512.42 2361.07,-519.35"/>
</g>
<!-- lin_dep&#45;&gt;lin_indep -->
<g id="edge37" class="edge">
<title>lin_dep&#45;&gt;lin_indep</title>
<path fill="none" stroke="black" d="M917.74,-543.07C1013.94,-545.56 1150.6,-549.1 1256.63,-551.84"/>
<polygon fill="black" stroke="black" points="1256.71,-555.35 1266.79,-552.11 1256.89,-548.35 1256.71,-555.35"/>
</g>
<!-- lin_dep&#45;&gt;lin_dep_criteria -->
<g id="edge38" class="edge">
<title>lin_dep&#45;&gt;lin_dep_criteria</title>
<path fill="none" stroke="black" d="M910.52,-533.16C1008.36,-527.14 1151.87,-518.31 1261.18,-511.59"/>
<polygon fill="black" stroke="black" points="1261.54,-515.07 1271.31,-510.97 1261.11,-508.09 1261.54,-515.07"/>
</g>
<!-- lin_indep&#45;&gt;matrix_nondegeneracy -->
<g id="edge41" class="edge">
<title>lin_indep&#45;&gt;matrix_nondegeneracy</title>
<path fill="none" stroke="black" d="M1547.23,-546.08C1591.92,-548.38 1640.4,-557.88 1678.66,-583 1705.94,-600.91 1689.86,-625.78 1714.66,-647 1757.59,-683.73 1816.41,-706.6 1866.12,-720.46"/>
<polygon fill="black" stroke="black" points="1865.37,-723.88 1875.94,-723.11 1867.2,-717.12 1865.37,-723.88"/>
</g>
<!-- lin_indep&#45;&gt;matrix_ran_theorem -->
<g id="edge40" class="edge">
<title>lin_indep&#45;&gt;matrix_ran_theorem</title>
<path fill="none" stroke="black" d="M1572.94,-556.58C1608.71,-560.87 1645.89,-568.86 1678.66,-583 1698.05,-591.36 1694.96,-606.41 1714.66,-614 1947.03,-703.54 2248.91,-672.69 2395.65,-649.35"/>
<polygon fill="black" stroke="black" points="2396.63,-652.73 2405.94,-647.68 2395.51,-645.82 2396.63,-652.73"/>
</g>
<!-- lin_indep&#45;&gt;SLE_FSS -->
<g id="edge42" class="edge">
<title>lin_indep&#45;&gt;SLE_FSS</title>
<path fill="none" stroke="black" d="M1557.22,-563.86C1661.59,-569.8 1801,-577.73 1886.51,-582.6"/>
<polygon fill="black" stroke="black" points="1886.48,-586.1 1896.67,-583.18 1886.88,-579.11 1886.48,-586.1"/>
</g>
<!-- lin_indep&#45;&gt;basic_minor_theorem -->
<g id="edge39" class="edge">
<title>lin_indep&#45;&gt;basic_minor_theorem</title>
<path fill="none" stroke="black" d="M1563.61,-549.9C1641.61,-546.6 1737.68,-542.55 1816.15,-539.24"/>
<polygon fill="black" stroke="black" points="1816.77,-542.71 1826.61,-538.79 1816.48,-535.72 1816.77,-542.71"/>
</g>
<!-- solution_structure -->
<g id="node37" class="node">
<title>solution_structure</title>
<g id="a_node37"><a xlink:href="algebra.html#solution_structure" xlink:title="Структура общего решения неоднородной СЛАУ">
<ellipse fill="none" stroke="black" cx="2998.15" cy="-533" rx="244.26" ry="18"/>
<text text-anchor="middle" x="2998.15" y="-529.3" font-family="Times,serif" font-size="14.00">Структура общего решения неоднородной СЛАУ</text>
</a>
</g>
</g>
<!-- solution_structure_o&#45;&gt;solution_structure -->
<g id="edge45" class="edge">
<title>solution_structure_o&#45;&gt;solution_structure</title>
<path fill="none" stroke="black" d="M2718.09,-533C2726.44,-533 2734.83,-533 2743.21,-533"/>
<polygon fill="black" stroke="black" points="2743.43,-536.5 2753.43,-533 2743.43,-529.5 2743.43,-536.5"/>
</g>
<!-- complex_forms -->
<g id="node38" class="node">
<title>complex_forms</title>
<g id="a_node38"><a xlink:href="algebra.html#complex_forms" xlink:title="Формы записи комплексных чисел">
<ellipse fill="none" stroke="black" cx="219.68" cy="-1232" rx="178.17" ry="18"/>
<text text-anchor="middle" x="219.68" y="-1228.3" font-family="Times,serif" font-size="14.00">Формы записи комплексных чисел</text>
</a>
</g>
</g>
<!-- complex_mod -->
<g id="node39" class="node">
<title>complex_mod</title>
<g id="a_node39"><a xlink:href="algebra.html#complex_mod" xlink:title="Модуль, аргумент и его главное значение у комплексного числа">
<ellipse fill="none" stroke="black" cx="798.38" cy="-1286" rx="323.04" ry="18"/>
<text text-anchor="middle" x="798.38" y="-1282.3" font-family="Times,serif" font-size="14.00">Модуль, аргумент и его главное значение у комплексного числа</text>
</a>
</g>
</g>
<!-- complex_forms&#45;&gt;complex_mod -->
<g id="edge46" class="edge">
<title>complex_forms&#45;&gt;complex_mod</title>
<path fill="none" stroke="black" d="M340.47,-1245.25C383.04,-1249.81 431.32,-1254.82 475.36,-1259 516.6,-1262.91 560.83,-1266.82 602.91,-1270.39"/>
<polygon fill="black" stroke="black" points="602.72,-1273.88 612.98,-1271.24 603.31,-1266.91 602.72,-1273.88"/>
</g>
<!-- complex_ops -->
<g id="node40" class="node">
<title>complex_ops</title>
<g id="a_node40"><a xlink:href="algebra.html#complex_ops" xlink:title="Сложение и умножение комплексных чисел">
<ellipse fill="none" stroke="black" cx="798.38" cy="-1232" rx="224.46" ry="18"/>
<text text-anchor="middle" x="798.38" y="-1228.3" font-family="Times,serif" font-size="14.00">Сложение и умножение комплексных чисел</text>
</a>
</g>
</g>
<!-- complex_forms&#45;&gt;complex_ops -->
<g id="edge47" class="edge">
<title>complex_forms&#45;&gt;complex_ops</title>
<path fill="none" stroke="black" d="M398.02,-1232C450.38,-1232 508.49,-1232 563.82,-1232"/>
<polygon fill="black" stroke="black" points="564.11,-1235.5 574.11,-1232 564.11,-1228.5 564.11,-1235.5"/>
</g>
<!-- complex_Euiler -->
<g id="node41" class="node">
<title>complex_Euiler</title>
<g id="a_node41"><a xlink:href="algebra.html#complex_Euiler" xlink:title="Формула Эйлера">
<ellipse fill="none" stroke="black" cx="798.38" cy="-1178" rx="90.98" ry="18"/>
<text text-anchor="middle" x="798.38" y="-1174.3" font-family="Times,serif" font-size="14.00">Формула Эйлера</text>
</a>
</g>
</g>
<!-- complex_forms&#45;&gt;complex_Euiler -->
<g id="edge48" class="edge">
<title>complex_forms&#45;&gt;complex_Euiler</title>
<path fill="none" stroke="black" d="M340.47,-1218.75C383.04,-1214.19 431.32,-1209.18 475.36,-1205 551.97,-1197.73 638.93,-1190.5 703.15,-1185.35"/>
<polygon fill="black" stroke="black" points="703.57,-1188.83 713.26,-1184.54 703.01,-1181.85 703.57,-1188.83"/>
</g>
<!-- complex_conj -->
<g id="node42" class="node">
<title>complex_conj</title>
<g id="a_node42"><a xlink:href="algebra.html#complex_conj" xlink:title="Комплексное сопряжение и деление">
<ellipse fill="none" stroke="black" cx="1418.03" cy="-1278" rx="186.57" ry="18"/>
<text text-anchor="middle" x="1418.03" y="-1274.3" font-family="Times,serif" font-size="14.00">Комплексное сопряжение и деление</text>
</a>
</g>
</g>
<!-- complex_ops&#45;&gt;complex_conj -->
<g id="edge49" class="edge">
<title>complex_ops&#45;&gt;complex_conj</title>
<path fill="none" stroke="black" d="M963.28,-1244.21C1055.08,-1251.04 1168.98,-1259.53 1259.7,-1266.28"/>
<polygon fill="black" stroke="black" points="1259.57,-1269.78 1269.8,-1267.03 1260.09,-1262.8 1259.57,-1269.78"/>
</g>
<!-- complex_Moivre -->
<g id="node43" class="node">
<title>complex_Moivre</title>
<g id="a_node43"><a xlink:href="algebra.html#complex_Moivre" xlink:title="Формула Муавра">
<ellipse fill="none" stroke="black" cx="1418.03" cy="-1224" rx="92.88" ry="18"/>
<text text-anchor="middle" x="1418.03" y="-1220.3" font-family="Times,serif" font-size="14.00">Формула Муавра</text>
</a>
</g>
</g>
<!-- complex_ops&#45;&gt;complex_Moivre -->
<g id="edge50" class="edge">
<title>complex_ops&#45;&gt;complex_Moivre</title>
<path fill="none" stroke="black" d="M1020.19,-1229.14C1120.81,-1227.84 1235.04,-1226.36 1315.02,-1225.32"/>
<polygon fill="black" stroke="black" points="1315.14,-1228.82 1325.09,-1225.19 1315.05,-1221.82 1315.14,-1228.82"/>
</g>
<!-- complex_roots -->
<g id="node44" class="node">
<title>complex_roots</title>
<g id="a_node44"><a xlink:href="algebra.html#complex_roots" xlink:title="Корни n&#45;ой степени из комплексного числа">
<ellipse fill="none" stroke="black" cx="219.68" cy="-1286" rx="219.86" ry="18"/>
<text text-anchor="middle" x="219.68" y="-1282.3" font-family="Times,serif" font-size="14.00">Корни n&#45;ой степени из комплексного числа</text>
</a>
</g>
</g>
<!-- main_theorem -->
<g id="node45" class="node">
<title>main_theorem</title>
<g id="a_node45"><a xlink:href="algebra.html#main_theorem" xlink:title="Основная теорема алгебры">
<ellipse fill="none" stroke="black" cx="219.68" cy="-1340" rx="141.88" ry="18"/>
<text text-anchor="middle" x="219.68" y="-1336.3" font-family="Times,serif" font-size="14.00">Основная теорема алгебры</text>
</a>
</g>
</g>
<!-- polynom_irreducable -->
<g id="node46" class="node">
<title>polynom_irreducable</title>
<g id="a_node46"><a xlink:href="algebra.html#polynom_irreducable" xlink:title="Неприводимый многочлен">
<ellipse fill="none" stroke="black" cx="219.68" cy="-1394" rx="138.38" ry="18"/>
<text text-anchor="middle" x="219.68" y="-1390.3" font-family="Times,serif" font-size="14.00">Неприводимый многочлен</text>
</a>
</g>
</g>
<!-- polynom_complex_reduce -->
<g id="node47" class="node">
<title>polynom_complex_reduce</title>
<g id="a_node47"><a xlink:href="algebra.html#polynom_complex_reduce" xlink:title="О разложении многочлена над ℂ">
<ellipse fill="none" stroke="black" cx="798.38" cy="-1394" rx="168.97" ry="18"/>
<text text-anchor="middle" x="798.38" y="-1390.3" font-family="Times,serif" font-size="14.00">О разложении многочлена над ℂ</text>
</a>
</g>
</g>
<!-- polynom_irreducable&#45;&gt;polynom_complex_reduce -->
<g id="edge51" class="edge">
<title>polynom_irreducable&#45;&gt;polynom_complex_reduce</title>
<path fill="none" stroke="black" d="M358.45,-1394C436.57,-1394 535.19,-1394 619.16,-1394"/>
<polygon fill="black" stroke="black" points="619.32,-1397.5 629.32,-1394 619.32,-1390.5 619.32,-1397.5"/>
</g>
<!-- termins -->
<g id="node48" class="node">
<title>termins</title>
<g id="a_node48"><a xlink:href="algebra.html#termins" xlink:title="Терминология">
<ellipse fill="none" stroke="black" cx="798.38" cy="-234" rx="79.89" ry="18"/>
<text text-anchor="middle" x="798.38" y="-230.3" font-family="Times,serif" font-size="14.00">Терминология</text>
</a>
</g>
</g>
<!-- group&#45;theory -->
<g id="node49" class="node">
<title>group&#45;theory</title>
<g id="a_node49"><a xlink:href="algebra.html#group-theory" xlink:title="Теория групп">
<ellipse fill="none" stroke="black" cx="1418.03" cy="-264" rx="75.29" ry="18"/>
<text text-anchor="middle" x="1418.03" y="-260.3" font-family="Times,serif" font-size="14.00">Теория групп</text>
</a>
</g>
</g>
<!-- termins&#45;&gt;group&#45;theory -->
<g id="edge52" class="edge">
<title>termins&#45;&gt;group&#45;theory</title>
<path fill="none" stroke="black" d="M876.67,-237.75C993.36,-243.42 1213.61,-254.12 1333.74,-259.95"/>
<polygon fill="black" stroke="black" points="1333.82,-263.46 1343.98,-260.45 1334.16,-256.47 1333.82,-263.46"/>
</g>
<!-- termins&#45;&gt;group_iso -->
<g id="edge53" class="edge">
<title>termins&#45;&gt;group_iso</title>
<path fill="none" stroke="black" d="M870.45,-226.19C1077.67,-204.41 1699.18,-145.93 2215.11,-168 2271.83,-170.43 2335.1,-175.72 2385.95,-180.62"/>
<polygon fill="black" stroke="black" points="2385.66,-184.11 2395.95,-181.6 2386.34,-177.14 2385.66,-184.11"/>
</g>
<!-- group&#45;theory&#45;&gt;simm_group -->
<g id="edge54" class="edge">
<title>group&#45;theory&#45;&gt;simm_group</title>
<path fill="none" stroke="black" d="M1477.77,-275C1537.31,-285.89 1632.16,-302.57 1714.66,-314 1757.96,-320 1805.65,-325.45 1847.62,-329.86"/>
<polygon fill="black" stroke="black" points="1847.29,-333.34 1857.6,-330.9 1848.02,-326.38 1847.29,-333.34"/>
</g>
<!-- group&#45;theory&#45;&gt;lin_group -->
<g id="edge55" class="edge">
<title>group&#45;theory&#45;&gt;lin_group</title>
<path fill="none" stroke="black" d="M1492.35,-260.93C1632.75,-255.66 1949.22,-246.66 2215.11,-260 2260.56,-262.28 2310.16,-266.72 2354.23,-271.35"/>
<polygon fill="black" stroke="black" points="2354.11,-274.86 2364.42,-272.44 2354.85,-267.9 2354.11,-274.86"/>
</g>
<!-- group&#45;theory&#45;&gt;group_homo -->
<g id="edge57" class="edge">
<title>group&#45;theory&#45;&gt;group_homo</title>
<path fill="none" stroke="black" d="M1455.1,-279.75C1510.01,-303.01 1618.36,-346.15 1714.66,-368 1758.67,-377.98 1807.91,-384.31 1850.93,-388.3"/>
<polygon fill="black" stroke="black" points="1850.88,-391.81 1861.15,-389.22 1851.5,-384.84 1850.88,-391.81"/>
</g>
<!-- subgroup -->
<g id="node51" class="node">
<title>subgroup</title>
<g id="a_node51"><a xlink:href="algebra.html#subgroup" xlink:title="Подгруппа">
<ellipse fill="none" stroke="black" cx="1964.89" cy="-287" rx="62.29" ry="18"/>
<text text-anchor="middle" x="1964.89" y="-283.3" font-family="Times,serif" font-size="14.00">Подгруппа</text>
</a>
</g>
</g>
<!-- group&#45;theory&#45;&gt;subgroup -->
<g id="edge56" class="edge">
<title>group&#45;theory&#45;&gt;subgroup</title>
<path fill="none" stroke="black" d="M1492.51,-267.1C1597.51,-271.53 1789.19,-279.63 1892.83,-284"/>
<polygon fill="black" stroke="black" points="1892.75,-287.5 1902.89,-284.42 1893.04,-280.51 1892.75,-287.5"/>
</g>
<!-- elem_ord -->
<g id="node52" class="node">
<title>elem_ord</title>
<g id="a_node52"><a xlink:href="algebra.html#elem_ord" xlink:title="Порядок элемента группы">
<ellipse fill="none" stroke="black" cx="1964.89" cy="-195" rx="137.58" ry="18"/>
<text text-anchor="middle" x="1964.89" y="-191.3" font-family="Times,serif" font-size="14.00">Порядок элемента группы</text>
</a>
</g>
</g>
<!-- group&#45;theory&#45;&gt;elem_ord -->
<g id="edge58" class="edge">
<title>group&#45;theory&#45;&gt;elem_ord</title>
<path fill="none" stroke="black" d="M1485.02,-255.64C1576.93,-244 1744.58,-222.77 1855.12,-208.77"/>
<polygon fill="black" stroke="black" points="1855.82,-212.21 1865.3,-207.48 1854.94,-205.27 1855.82,-212.21"/>
</g>
<!-- subgroup&#45;&gt;lin_group -->
<g id="edge59" class="edge">
<title>subgroup&#45;&gt;lin_group</title>
<path fill="none" stroke="black" d="M2027.29,-287C2087.36,-287 2182.38,-287 2270.17,-287"/>
<polygon fill="black" stroke="black" points="2270.29,-290.5 2280.29,-287 2270.29,-283.5 2270.29,-290.5"/>
</g>
</g>
</svg>
