<?xml version="1.0" encoding="UTF-8" standalone="no"?>
<!DOCTYPE svg PUBLIC "-//W3C//DTD SVG 1.1//EN"
 "http://www.w3.org/Graphics/SVG/1.1/DTD/svg11.dtd">
<!-- Generated by graphviz version 2.43.0 (0)
 -->
<!-- Title: %3 Pages: 1 -->
<svg width="3251pt" height="1425pt"
 viewBox="0.00 0.00 3250.53 1425.00" xmlns="http://www.w3.org/2000/svg" xmlns:xlink="http://www.w3.org/1999/xlink">
<g id="graph0" class="graph" transform="scale(1 1) rotate(0) translate(4 1421)">
<title>%3</title>
<polygon fill="white" stroke="transparent" points="-4,4 -4,-1421 3246.53,-1421 3246.53,4 -4,4"/>
<!-- description -->
<g id="node1" class="node">
<title>description</title>
<g id="a_node1"><a xlink:href="algebra.html#description" xlink:title="Карточки по алгебре">
<ellipse fill="none" stroke="black" cx="219.68" cy="-18" rx="111.58" ry="18"/>
<text text-anchor="middle" x="219.68" y="-14.3" font-family="Times,serif" font-size="14.00">Карточки по алгебре</text>
</a>
</g>
</g>
<!-- matrix_mul -->
<g id="node2" class="node">
<title>matrix_mul</title>
<g id="a_node2"><a xlink:href="algebra.html#matrix_mul" xlink:title="Умножение матриц">
<ellipse fill="none" stroke="black" cx="219.68" cy="-72" rx="104.78" ry="18"/>
<text text-anchor="middle" x="219.68" y="-68.3" font-family="Times,serif" font-size="14.00">Умножение матриц</text>
</a>
</g>
</g>
<!-- matrix_stair -->
<g id="node3" class="node">
<title>matrix_stair</title>
<g id="a_node3"><a xlink:href="algebra.html#matrix_stair" xlink:title="Ступенчатый вид матриц">
<ellipse fill="none" stroke="black" cx="219.68" cy="-126" rx="131.88" ry="18"/>
<text text-anchor="middle" x="219.68" y="-122.3" font-family="Times,serif" font-size="14.00">Ступенчатый вид матриц</text>
</a>
</g>
</g>
<!-- matrix_canon -->
<g id="node4" class="node">
<title>matrix_canon</title>
<g id="a_node4"><a xlink:href="algebra.html#matrix_canon" xlink:title="Канонический вид матрицы">
<ellipse fill="none" stroke="black" cx="798.38" cy="-149" rx="144.07" ry="18"/>
<text text-anchor="middle" x="798.38" y="-145.3" font-family="Times,serif" font-size="14.00">Канонический вид матрицы</text>
</a>
</g>
</g>
<!-- matrix_stair&#45;&gt;matrix_canon -->
<g id="edge1" class="edge">
<title>matrix_stair&#45;&gt;matrix_canon</title>
<path fill="none" stroke="black" d="M346.53,-131.02C436.06,-134.59 556.64,-139.4 650.56,-143.14"/>
<polygon fill="black" stroke="black" points="650.59,-146.65 660.72,-143.55 650.87,-139.65 650.59,-146.65"/>
</g>
<!-- matrix_gauss -->
<g id="node5" class="node">
<title>matrix_gauss</title>
<g id="a_node5"><a xlink:href="algebra.html#matrix_gauss" xlink:title="Теорема о методе Гаусса">
<ellipse fill="none" stroke="black" cx="1418.03" cy="-103" rx="130.78" ry="18"/>
<text text-anchor="middle" x="1418.03" y="-99.3" font-family="Times,serif" font-size="14.00">Теорема о методе Гаусса</text>
</a>
</g>
</g>
<!-- matrix_stair&#45;&gt;matrix_gauss -->
<g id="edge2" class="edge">
<title>matrix_stair&#45;&gt;matrix_gauss</title>
<path fill="none" stroke="black" d="M350.42,-123.51C577.51,-119.14 1045.03,-110.15 1278.3,-105.67"/>
<polygon fill="black" stroke="black" points="1278.62,-109.16 1288.55,-105.47 1278.48,-102.16 1278.62,-109.16"/>
</g>
<!-- matrix_canon&#45;&gt;matrix_gauss -->
<g id="edge3" class="edge">
<title>matrix_canon&#45;&gt;matrix_gauss</title>
<path fill="none" stroke="black" d="M922.89,-139.8C1030.23,-131.81 1184.97,-120.28 1292.59,-112.27"/>
<polygon fill="black" stroke="black" points="1293.14,-115.74 1302.85,-111.5 1292.62,-108.76 1293.14,-115.74"/>
</g>
<!-- matrix_transform -->
<g id="node6" class="node">
<title>matrix_transform</title>
<g id="a_node6"><a xlink:href="algebra.html#matrix_transform" xlink:title="Элементарные преобразования строк">
<ellipse fill="none" stroke="black" cx="798.38" cy="-57" rx="192.27" ry="18"/>
<text text-anchor="middle" x="798.38" y="-53.3" font-family="Times,serif" font-size="14.00">Элементарные преобразования строк</text>
</a>
</g>
</g>
<!-- matrix_transform&#45;&gt;matrix_gauss -->
<g id="edge4" class="edge">
<title>matrix_transform&#45;&gt;matrix_gauss</title>
<path fill="none" stroke="black" d="M949.29,-68.16C1054.4,-75.99 1193.28,-86.34 1292.34,-93.71"/>
<polygon fill="black" stroke="black" points="1292.17,-97.21 1302.4,-94.46 1292.69,-90.23 1292.17,-97.21"/>
</g>
<!-- perm -->
<g id="node7" class="node">
<title>perm</title>
<g id="a_node7"><a xlink:href="algebra.html#perm" xlink:title="Перестановка">
<ellipse fill="none" stroke="black" cx="219.68" cy="-195" rx="77.99" ry="18"/>
<text text-anchor="middle" x="219.68" y="-191.3" font-family="Times,serif" font-size="14.00">Перестановка</text>
</a>
</g>
</g>
<!-- subst -->
<g id="node8" class="node">
<title>subst</title>
<g id="a_node8"><a xlink:href="algebra.html#subst" xlink:title="Подстановка">
<ellipse fill="none" stroke="black" cx="798.38" cy="-944" rx="72.29" ry="18"/>
<text text-anchor="middle" x="798.38" y="-940.3" font-family="Times,serif" font-size="14.00">Подстановка</text>
</a>
</g>
</g>
<!-- subst_sign -->
<g id="node9" class="node">
<title>subst_sign</title>
<g id="a_node9"><a xlink:href="algebra.html#subst_sign" xlink:title="Знак подстановки">
<ellipse fill="none" stroke="black" cx="1418.03" cy="-1052" rx="96.68" ry="18"/>
<text text-anchor="middle" x="1418.03" y="-1048.3" font-family="Times,serif" font-size="14.00">Знак подстановки</text>
</a>
</g>
</g>
<!-- subst&#45;&gt;subst_sign -->
<g id="edge5" class="edge">
<title>subst&#45;&gt;subst_sign</title>
<path fill="none" stroke="black" d="M850.99,-956.43C920.34,-972.78 1047.58,-1001.61 1157.4,-1020 1211.88,-1029.12 1273.19,-1036.8 1322.55,-1042.35"/>
<polygon fill="black" stroke="black" points="1322.25,-1045.83 1332.58,-1043.46 1323.03,-1038.88 1322.25,-1045.83"/>
</g>
<!-- subst_even -->
<g id="node10" class="node">
<title>subst_even</title>
<g id="a_node10"><a xlink:href="algebra.html#subst_even" xlink:title="Чётность подстановки">
<ellipse fill="none" stroke="black" cx="1964.89" cy="-1079" rx="116.18" ry="18"/>
<text text-anchor="middle" x="1964.89" y="-1075.3" font-family="Times,serif" font-size="14.00">Чётность подстановки</text>
</a>
</g>
</g>
<!-- subst&#45;&gt;subst_even -->
<g id="edge6" class="edge">
<title>subst&#45;&gt;subst_even</title>
<path fill="none" stroke="black" d="M862.34,-952.47C933.77,-961.86 1053.81,-977.01 1157.4,-987 1273.01,-998.15 1569.88,-984.29 1678.66,-1025 1697.39,-1032.01 1696.05,-1044.66 1714.66,-1052 1753.29,-1067.24 1797.74,-1074.87 1838.31,-1078.44"/>
<polygon fill="black" stroke="black" points="1838.29,-1081.95 1848.54,-1079.27 1838.85,-1074.98 1838.29,-1081.95"/>
</g>
<!-- matrix_det -->
<g id="node11" class="node">
<title>matrix_det</title>
<g id="a_node11"><a xlink:href="algebra.html#matrix_det" xlink:title="Определитель">
<ellipse fill="none" stroke="black" cx="1418.03" cy="-825" rx="78.79" ry="18"/>
<text text-anchor="middle" x="1418.03" y="-821.3" font-family="Times,serif" font-size="14.00">Определитель</text>
</a>
</g>
</g>
<!-- subst&#45;&gt;matrix_det -->
<g id="edge7" class="edge">
<title>subst&#45;&gt;matrix_det</title>
<path fill="none" stroke="black" d="M856.11,-933.07C969.52,-911.22 1223.93,-862.2 1347.3,-838.43"/>
<polygon fill="black" stroke="black" points="1348.23,-841.82 1357.39,-836.49 1346.91,-834.95 1348.23,-841.82"/>
</g>
<!-- simm_group -->
<g id="node12" class="node">
<title>simm_group</title>
<g id="a_node12"><a xlink:href="algebra.html#simm_group" xlink:title="Симметрическая группа">
<ellipse fill="none" stroke="black" cx="1964.89" cy="-717" rx="129.18" ry="18"/>
<text text-anchor="middle" x="1964.89" y="-713.3" font-family="Times,serif" font-size="14.00">Симметрическая группа</text>
</a>
</g>
</g>
<!-- subst&#45;&gt;simm_group -->
<g id="edge8" class="edge">
<title>subst&#45;&gt;simm_group</title>
<path fill="none" stroke="black" d="M830.44,-927.75C891.31,-896.71 1031.35,-829.34 1157.4,-798 1173.97,-793.88 1628.78,-749.47 1847.95,-728.21"/>
<polygon fill="black" stroke="black" points="1848.59,-731.67 1858.21,-727.22 1847.92,-724.7 1848.59,-731.67"/>
</g>
<!-- subst_sign&#45;&gt;subst_even -->
<g id="edge11" class="edge">
<title>subst_sign&#45;&gt;subst_even</title>
<path fill="none" stroke="black" d="M1511.77,-1056.6C1603.25,-1061.13 1743.54,-1068.08 1843.56,-1073.04"/>
<polygon fill="black" stroke="black" points="1843.56,-1076.54 1853.72,-1073.54 1843.91,-1069.55 1843.56,-1076.54"/>
</g>
<!-- det_decomposition -->
<g id="node14" class="node">
<title>det_decomposition</title>
<g id="a_node14"><a xlink:href="algebra.html#det_decomposition" xlink:title="Разложение определителя по столбцу (строке)">
<ellipse fill="none" stroke="black" cx="1964.89" cy="-879" rx="235.06" ry="18"/>
<text text-anchor="middle" x="1964.89" y="-875.3" font-family="Times,serif" font-size="14.00">Разложение определителя по столбцу (строке)</text>
</a>
</g>
</g>
<!-- matrix_det&#45;&gt;det_decomposition -->
<g id="edge12" class="edge">
<title>matrix_det&#45;&gt;det_decomposition</title>
<path fill="none" stroke="black" d="M1490.54,-832.09C1571.44,-840.11 1705.57,-853.4 1810.43,-863.79"/>
<polygon fill="black" stroke="black" points="1810.19,-867.28 1820.48,-864.79 1810.88,-860.32 1810.19,-867.28"/>
</g>
<!-- matrix_inv -->
<g id="node15" class="node">
<title>matrix_inv</title>
<g id="a_node15"><a xlink:href="algebra.html#matrix_inv" xlink:title="Обратная матрица">
<ellipse fill="none" stroke="black" cx="1964.89" cy="-933" rx="100.18" ry="18"/>
<text text-anchor="middle" x="1964.89" y="-929.3" font-family="Times,serif" font-size="14.00">Обратная матрица</text>
</a>
</g>
</g>
<!-- matrix_det&#45;&gt;matrix_inv -->
<g id="edge13" class="edge">
<title>matrix_det&#45;&gt;matrix_inv</title>
<path fill="none" stroke="black" d="M1464.08,-839.76C1521.6,-858.05 1624.47,-888.87 1714.66,-906 1762.46,-915.08 1816.04,-921.38 1861.24,-925.59"/>
<polygon fill="black" stroke="black" points="1861.06,-929.09 1871.34,-926.51 1861.7,-922.12 1861.06,-929.09"/>
</g>
<!-- matrix_nondegeneracy -->
<g id="node16" class="node">
<title>matrix_nondegeneracy</title>
<g id="a_node16"><a xlink:href="algebra.html#matrix_nondegeneracy" xlink:title="Критерий невырожденности квадратной матрицы">
<ellipse fill="none" stroke="black" cx="1964.89" cy="-571" rx="250.46" ry="18"/>
<text text-anchor="middle" x="1964.89" y="-567.3" font-family="Times,serif" font-size="14.00">Критерий невырожденности квадратной матрицы</text>
</a>
</g>
</g>
<!-- matrix_det&#45;&gt;matrix_nondegeneracy -->
<g id="edge14" class="edge">
<title>matrix_det&#45;&gt;matrix_nondegeneracy</title>
<path fill="none" stroke="black" d="M1493.5,-819.84C1551.12,-812.03 1629.19,-792.52 1678.66,-744 1714.78,-708.57 1677.71,-670.57 1714.66,-636 1739.07,-613.16 1770.48,-598.12 1802.72,-588.26"/>
<polygon fill="black" stroke="black" points="1804.11,-591.51 1812.75,-585.37 1802.17,-584.78 1804.11,-591.51"/>
</g>
<!-- SLE_nonzero_criteria -->
<g id="node17" class="node">
<title>SLE_nonzero_criteria</title>
<g id="a_node17"><a xlink:href="algebra.html#SLE_nonzero_criteria" xlink:title="Критерий существования ненулевого решения">
<ellipse fill="none" stroke="black" cx="1964.89" cy="-825" rx="235.06" ry="18"/>
<text text-anchor="middle" x="1964.89" y="-821.3" font-family="Times,serif" font-size="14.00">Критерий существования ненулевого решения</text>
</a>
</g>
</g>
<!-- matrix_det&#45;&gt;SLE_nonzero_criteria -->
<g id="edge15" class="edge">
<title>matrix_det&#45;&gt;SLE_nonzero_criteria</title>
<path fill="none" stroke="black" d="M1496.81,-825C1555.31,-825 1638.9,-825 1719.22,-825"/>
<polygon fill="black" stroke="black" points="1719.51,-828.5 1729.51,-825 1719.51,-821.5 1719.51,-828.5"/>
</g>
<!-- lin_group -->
<g id="node18" class="node">
<title>lin_group</title>
<g id="a_node18"><a xlink:href="algebra.html#lin_group" xlink:title="Общая и специальная линейные группы">
<ellipse fill="none" stroke="black" cx="1964.89" cy="-663" rx="204.16" ry="18"/>
<text text-anchor="middle" x="1964.89" y="-659.3" font-family="Times,serif" font-size="14.00">Общая и специальная линейные группы</text>
</a>
</g>
</g>
<!-- matrix_det&#45;&gt;lin_group -->
<g id="edge16" class="edge">
<title>matrix_det&#45;&gt;lin_group</title>
<path fill="none" stroke="black" d="M1487.67,-816.47C1543.63,-806.68 1622.34,-786.16 1678.66,-744 1701.75,-726.71 1690,-704.96 1714.66,-690 1727.93,-681.94 1742.35,-675.61 1757.34,-670.67"/>
<polygon fill="black" stroke="black" points="1758.73,-673.91 1767.26,-667.63 1756.67,-667.22 1758.73,-673.91"/>
</g>
<!-- group_homo -->
<g id="node19" class="node">
<title>group_homo</title>
<g id="a_node19"><a xlink:href="algebra.html#group_homo" xlink:title="Гомоморфизм групп">
<ellipse fill="none" stroke="black" cx="1964.89" cy="-771" rx="109.38" ry="18"/>
<text text-anchor="middle" x="1964.89" y="-767.3" font-family="Times,serif" font-size="14.00">Гомоморфизм групп</text>
</a>
</g>
</g>
<!-- matrix_det&#45;&gt;group_homo -->
<g id="edge17" class="edge">
<title>matrix_det&#45;&gt;group_homo</title>
<path fill="none" stroke="black" d="M1490.54,-817.91C1585.17,-808.53 1752.63,-791.94 1860.89,-781.21"/>
<polygon fill="black" stroke="black" points="1861.24,-784.69 1870.85,-780.22 1860.55,-777.72 1861.24,-784.69"/>
</g>
<!-- subst_inv -->
<g id="node13" class="node">
<title>subst_inv</title>
<g id="a_node13"><a xlink:href="algebra.html#subst_inv" xlink:title="Число инверсий в подстановке">
<ellipse fill="none" stroke="black" cx="798.38" cy="-1075" rx="157.87" ry="18"/>
<text text-anchor="middle" x="798.38" y="-1071.3" font-family="Times,serif" font-size="14.00">Число инверсий в подстановке</text>
</a>
</g>
</g>
<!-- subst_inv&#45;&gt;subst_sign -->
<g id="edge9" class="edge">
<title>subst_inv&#45;&gt;subst_sign</title>
<path fill="none" stroke="black" d="M948.9,-1069.43C1061.42,-1065.24 1212.8,-1059.61 1312.56,-1055.89"/>
<polygon fill="black" stroke="black" points="1312.79,-1059.38 1322.66,-1055.51 1312.53,-1052.39 1312.79,-1059.38"/>
</g>
<!-- subst_inv&#45;&gt;subst_even -->
<g id="edge10" class="edge">
<title>subst_inv&#45;&gt;subst_even</title>
<path fill="none" stroke="black" d="M955.34,-1077.12C1018.12,-1077.88 1091.2,-1078.63 1157.4,-1079 1398.19,-1080.35 1679.42,-1079.88 1838.09,-1079.43"/>
<polygon fill="black" stroke="black" points="1838.37,-1082.93 1848.36,-1079.41 1838.35,-1075.93 1838.37,-1082.93"/>
</g>
<!-- fake_decomoposition -->
<g id="node20" class="node">
<title>fake_decomoposition</title>
<g id="a_node20"><a xlink:href="algebra.html#fake_decomoposition" xlink:title="Фальшивое разложение">
<ellipse fill="none" stroke="black" cx="2484.44" cy="-925" rx="125.38" ry="18"/>
<text text-anchor="middle" x="2484.44" y="-921.3" font-family="Times,serif" font-size="14.00">Фальшивое разложение</text>
</a>
</g>
</g>
<!-- det_decomposition&#45;&gt;fake_decomoposition -->
<g id="edge18" class="edge">
<title>det_decomposition&#45;&gt;fake_decomoposition</title>
<path fill="none" stroke="black" d="M2119.07,-892.61C2198.5,-899.67 2293.94,-908.16 2367.22,-914.67"/>
<polygon fill="black" stroke="black" points="2367.14,-918.18 2377.41,-915.58 2367.76,-911.2 2367.14,-918.18"/>
</g>
<!-- matrix_inv_formula -->
<g id="node24" class="node">
<title>matrix_inv_formula</title>
<g id="a_node24"><a xlink:href="algebra.html#matrix_inv_formula" xlink:title="Формула вычисления обратной матрицы">
<ellipse fill="none" stroke="black" cx="2484.44" cy="-1002" rx="206.06" ry="18"/>
<text text-anchor="middle" x="2484.44" y="-998.3" font-family="Times,serif" font-size="14.00">Формула вычисления обратной матрицы</text>
</a>
</g>
</g>
<!-- matrix_inv&#45;&gt;matrix_inv_formula -->
<g id="edge23" class="edge">
<title>matrix_inv&#45;&gt;matrix_inv_formula</title>
<path fill="none" stroke="black" d="M2045.9,-943.67C2129.9,-954.87 2263.03,-972.61 2360.4,-985.6"/>
<polygon fill="black" stroke="black" points="2360.22,-989.1 2370.6,-986.96 2361.15,-982.16 2360.22,-989.1"/>
</g>
<!-- group_iso -->
<g id="node49" class="node">
<title>group_iso</title>
<g id="a_node49"><a xlink:href="algebra.html#group_iso" xlink:title="Изоморфизм групп">
<ellipse fill="none" stroke="black" cx="2484.44" cy="-694" rx="103.18" ry="18"/>
<text text-anchor="middle" x="2484.44" y="-690.3" font-family="Times,serif" font-size="14.00">Изоморфизм групп</text>
</a>
</g>
</g>
<!-- group_homo&#45;&gt;group_iso -->
<g id="edge57" class="edge">
<title>group_homo&#45;&gt;group_iso</title>
<path fill="none" stroke="black" d="M2061.08,-762.41C2107.62,-757.77 2164.41,-751.46 2215.11,-744 2280.3,-734.41 2353.83,-720.49 2407.41,-709.77"/>
<polygon fill="black" stroke="black" points="2408.4,-713.14 2417.51,-707.74 2407.02,-706.28 2408.4,-713.14"/>
</g>
<!-- complementary_minor -->
<g id="node21" class="node">
<title>complementary_minor</title>
<g id="a_node21"><a xlink:href="algebra.html#complementary_minor" xlink:title="Дополняющий минор и алгебраическое дополнение">
<ellipse fill="none" stroke="black" cx="1418.03" cy="-960" rx="260.75" ry="18"/>
<text text-anchor="middle" x="1418.03" y="-956.3" font-family="Times,serif" font-size="14.00">Дополняющий минор и алгебраическое дополнение</text>
</a>
</g>
</g>
<!-- complementary_minor&#45;&gt;det_decomposition -->
<g id="edge19" class="edge">
<title>complementary_minor&#45;&gt;det_decomposition</title>
<path fill="none" stroke="black" d="M1503.18,-942.94C1562.19,-931.4 1643.02,-916.41 1714.66,-906 1744.58,-901.65 1776.62,-897.68 1807.42,-894.19"/>
<polygon fill="black" stroke="black" points="1807.83,-897.66 1817.38,-893.07 1807.05,-890.71 1807.83,-897.66"/>
</g>
<!-- complementary_minor&#45;&gt;fake_decomoposition -->
<g id="edge20" class="edge">
<title>complementary_minor&#45;&gt;fake_decomoposition</title>
<path fill="none" stroke="black" d="M1652.24,-967.95C1811.07,-971.41 2025.99,-972.28 2215.11,-960 2273.9,-956.18 2339.47,-947.71 2391.08,-940.05"/>
<polygon fill="black" stroke="black" points="2391.84,-943.48 2401.21,-938.54 2390.8,-936.56 2391.84,-943.48"/>
</g>
<!-- union_matrix -->
<g id="node22" class="node">
<title>union_matrix</title>
<g id="a_node22"><a xlink:href="algebra.html#union_matrix" xlink:title="Союзная матрица">
<ellipse fill="none" stroke="black" cx="1964.89" cy="-1025" rx="96.38" ry="18"/>
<text text-anchor="middle" x="1964.89" y="-1021.3" font-family="Times,serif" font-size="14.00">Союзная матрица</text>
</a>
</g>
</g>
<!-- complementary_minor&#45;&gt;union_matrix -->
<g id="edge21" class="edge">
<title>complementary_minor&#45;&gt;union_matrix</title>
<path fill="none" stroke="black" d="M1549.54,-975.57C1649.57,-987.5 1785.03,-1003.66 1873.42,-1014.21"/>
<polygon fill="black" stroke="black" points="1873.08,-1017.69 1883.42,-1015.4 1873.91,-1010.74 1873.08,-1017.69"/>
</g>
<!-- union_matrix&#45;&gt;matrix_inv_formula -->
<g id="edge22" class="edge">
<title>union_matrix&#45;&gt;matrix_inv_formula</title>
<path fill="none" stroke="black" d="M2058.71,-1020.87C2123.08,-1018.01 2211.15,-1014.1 2290.41,-1010.58"/>
<polygon fill="black" stroke="black" points="2290.69,-1014.07 2300.52,-1010.13 2290.38,-1007.08 2290.69,-1014.07"/>
</g>
<!-- kramer -->
<g id="node23" class="node">
<title>kramer</title>
<g id="a_node23"><a xlink:href="algebra.html#kramer" xlink:title="Формулы Крамера">
<ellipse fill="none" stroke="black" cx="219.68" cy="-814" rx="100.18" ry="18"/>
<text text-anchor="middle" x="219.68" y="-810.3" font-family="Times,serif" font-size="14.00">Формулы Крамера</text>
</a>
</g>
</g>
<!-- matrix_minor -->
<g id="node25" class="node">
<title>matrix_minor</title>
<g id="a_node25"><a xlink:href="algebra.html#matrix_minor" xlink:title="Миноры матрицы">
<ellipse fill="none" stroke="black" cx="219.68" cy="-456" rx="95.58" ry="18"/>
<text text-anchor="middle" x="219.68" y="-452.3" font-family="Times,serif" font-size="14.00">Миноры матрицы</text>
</a>
</g>
</g>
<!-- matrix_ran -->
<g id="node26" class="node">
<title>matrix_ran</title>
<g id="a_node26"><a xlink:href="algebra.html#matrix_ran" xlink:title="Ранг матрицы">
<ellipse fill="none" stroke="black" cx="798.38" cy="-477" rx="78.79" ry="18"/>
<text text-anchor="middle" x="798.38" y="-473.3" font-family="Times,serif" font-size="14.00">Ранг матрицы</text>
</a>
</g>
</g>
<!-- matrix_minor&#45;&gt;matrix_ran -->
<g id="edge24" class="edge">
<title>matrix_minor&#45;&gt;matrix_ran</title>
<path fill="none" stroke="black" d="M313.66,-459.39C423.07,-463.37 603.33,-469.93 710.18,-473.82"/>
<polygon fill="black" stroke="black" points="710.16,-477.33 720.28,-474.19 710.42,-470.33 710.16,-477.33"/>
</g>
<!-- basic_minor -->
<g id="node27" class="node">
<title>basic_minor</title>
<g id="a_node27"><a xlink:href="algebra.html#basic_minor" xlink:title="Базисный минор">
<ellipse fill="none" stroke="black" cx="1418.03" cy="-425" rx="90.98" ry="18"/>
<text text-anchor="middle" x="1418.03" y="-421.3" font-family="Times,serif" font-size="14.00">Базисный минор</text>
</a>
</g>
</g>
<!-- matrix_minor&#45;&gt;basic_minor -->
<g id="edge25" class="edge">
<title>matrix_minor&#45;&gt;basic_minor</title>
<path fill="none" stroke="black" d="M314.56,-453.57C536.17,-447.83 1090.22,-433.47 1317.43,-427.58"/>
<polygon fill="black" stroke="black" points="1317.77,-431.07 1327.68,-427.32 1317.59,-424.08 1317.77,-431.07"/>
</g>
<!-- matrix_ran&#45;&gt;matrix_nondegeneracy -->
<g id="edge28" class="edge">
<title>matrix_ran&#45;&gt;matrix_nondegeneracy</title>
<path fill="none" stroke="black" d="M856.41,-489.27C926.79,-503.86 1050.29,-527.65 1157.4,-539 1339.77,-558.32 1546.46,-566.25 1704.93,-569.39"/>
<polygon fill="black" stroke="black" points="1705.24,-572.89 1715.3,-569.59 1705.37,-565.9 1705.24,-572.89"/>
</g>
<!-- matrix_ran&#45;&gt;basic_minor -->
<g id="edge26" class="edge">
<title>matrix_ran&#45;&gt;basic_minor</title>
<path fill="none" stroke="black" d="M872.36,-470.86C984.75,-461.39 1200.15,-443.26 1323.73,-432.86"/>
<polygon fill="black" stroke="black" points="1324.26,-436.32 1333.93,-432 1323.67,-429.35 1324.26,-436.32"/>
</g>
<!-- matrix_ran_theorem -->
<g id="node28" class="node">
<title>matrix_ran_theorem</title>
<g id="a_node28"><a xlink:href="algebra.html#matrix_ran_theorem" xlink:title="Теорема о ранге матрицы">
<ellipse fill="none" stroke="black" cx="2484.44" cy="-379" rx="135.38" ry="18"/>
<text text-anchor="middle" x="2484.44" y="-375.3" font-family="Times,serif" font-size="14.00">Теорема о ранге матрицы</text>
</a>
</g>
</g>
<!-- matrix_ran&#45;&gt;matrix_ran_theorem -->
<g id="edge27" class="edge">
<title>matrix_ran&#45;&gt;matrix_ran_theorem</title>
<path fill="none" stroke="black" d="M870.27,-484.44C942.42,-491.62 1057.55,-501.96 1157.4,-506 1388.88,-515.36 1447.7,-524.11 1678.66,-506 1945.13,-485.1 2256.7,-425.86 2401.61,-396.27"/>
<polygon fill="black" stroke="black" points="2402.66,-399.62 2411.75,-394.19 2401.25,-392.77 2402.66,-399.62"/>
</g>
<!-- Kronecker&#45;Capelli -->
<g id="node29" class="node">
<title>Kronecker&#45;Capelli</title>
<g id="a_node29"><a xlink:href="algebra.html#Kronecker-Capelli" xlink:title="Теорема Кронекера&#45;Капелли">
<ellipse fill="none" stroke="black" cx="1418.03" cy="-479" rx="149.47" ry="18"/>
<text text-anchor="middle" x="1418.03" y="-475.3" font-family="Times,serif" font-size="14.00">Теорема Кронекера&#45;Капелли</text>
</a>
</g>
</g>
<!-- matrix_ran&#45;&gt;Kronecker&#45;Capelli -->
<g id="edge29" class="edge">
<title>matrix_ran&#45;&gt;Kronecker&#45;Capelli</title>
<path fill="none" stroke="black" d="M877.29,-477.25C972.56,-477.56 1136.17,-478.09 1258.34,-478.49"/>
<polygon fill="black" stroke="black" points="1258.54,-481.99 1268.55,-478.52 1258.56,-474.99 1258.54,-481.99"/>
</g>
<!-- SLE_FSS -->
<g id="node30" class="node">
<title>SLE_FSS</title>
<g id="a_node30"><a xlink:href="algebra.html#SLE_FSS" xlink:title="ФСР ОСЛАУ">
<ellipse fill="none" stroke="black" cx="1964.89" cy="-287" rx="69.59" ry="18"/>
<text text-anchor="middle" x="1964.89" y="-283.3" font-family="Times,serif" font-size="14.00">ФСР ОСЛАУ</text>
</a>
</g>
</g>
<!-- matrix_ran&#45;&gt;SLE_FSS -->
<g id="edge30" class="edge">
<title>matrix_ran&#45;&gt;SLE_FSS</title>
<path fill="none" stroke="black" d="M825.33,-459.8C882.41,-423.09 1024.42,-337.78 1157.4,-306 1293.88,-273.39 1710.83,-280.19 1885.55,-284.68"/>
<polygon fill="black" stroke="black" points="1885.62,-288.19 1895.7,-284.95 1885.8,-281.19 1885.62,-288.19"/>
</g>
<!-- basic_minor_theorem -->
<g id="node31" class="node">
<title>basic_minor_theorem</title>
<g id="a_node31"><a xlink:href="algebra.html#basic_minor_theorem" xlink:title="Теорема о базисном миноре">
<ellipse fill="none" stroke="black" cx="1964.89" cy="-379" rx="145.67" ry="18"/>
<text text-anchor="middle" x="1964.89" y="-375.3" font-family="Times,serif" font-size="14.00">Теорема о базисном миноре</text>
</a>
</g>
</g>
<!-- basic_minor&#45;&gt;basic_minor_theorem -->
<g id="edge31" class="edge">
<title>basic_minor&#45;&gt;basic_minor_theorem</title>
<path fill="none" stroke="black" d="M1502.08,-417.99C1590.37,-410.53 1731.19,-398.65 1834.14,-389.95"/>
<polygon fill="black" stroke="black" points="1834.62,-393.43 1844.29,-389.1 1834.03,-386.45 1834.62,-393.43"/>
</g>
<!-- solution_structure_o -->
<g id="node36" class="node">
<title>solution_structure_o</title>
<g id="a_node36"><a xlink:href="algebra.html#solution_structure_o" xlink:title="Структура общего решения однородной СЛАУ">
<ellipse fill="none" stroke="black" cx="2484.44" cy="-241" rx="233.16" ry="18"/>
<text text-anchor="middle" x="2484.44" y="-237.3" font-family="Times,serif" font-size="14.00">Структура общего решения однородной СЛАУ</text>
</a>
</g>
</g>
<!-- SLE_FSS&#45;&gt;solution_structure_o -->
<g id="edge44" class="edge">
<title>SLE_FSS&#45;&gt;solution_structure_o</title>
<path fill="none" stroke="black" d="M2030.91,-281.22C2103.22,-274.79 2222.77,-264.17 2320.83,-255.45"/>
<polygon fill="black" stroke="black" points="2321.2,-258.93 2330.86,-254.56 2320.59,-251.96 2321.2,-258.93"/>
</g>
<!-- basic_minor_theorem&#45;&gt;matrix_ran_theorem -->
<g id="edge43" class="edge">
<title>basic_minor_theorem&#45;&gt;matrix_ran_theorem</title>
<path fill="none" stroke="black" d="M2110.74,-379C2181.86,-379 2267.31,-379 2338.45,-379"/>
<polygon fill="black" stroke="black" points="2338.83,-382.5 2348.83,-379 2338.83,-375.5 2338.83,-382.5"/>
</g>
<!-- lin_comb -->
<g id="node32" class="node">
<title>lin_comb</title>
<g id="a_node32"><a xlink:href="algebra.html#lin_comb" xlink:title="Линейная комбинация">
<ellipse fill="none" stroke="black" cx="219.68" cy="-287" rx="120.48" ry="18"/>
<text text-anchor="middle" x="219.68" y="-283.3" font-family="Times,serif" font-size="14.00">Линейная комбинация</text>
</a>
</g>
</g>
<!-- lin_comb&#45;&gt;basic_minor_theorem -->
<g id="edge35" class="edge">
<title>lin_comb&#45;&gt;basic_minor_theorem</title>
<path fill="none" stroke="black" d="M282.5,-302.36C333.8,-314.39 408.84,-330.32 475.36,-338 961.87,-394.17 1543.46,-389.66 1813,-383.52"/>
<polygon fill="black" stroke="black" points="1813.32,-387.01 1823.24,-383.28 1813.16,-380.01 1813.32,-387.01"/>
</g>
<!-- lin_dep -->
<g id="node33" class="node">
<title>lin_dep</title>
<g id="a_node33"><a xlink:href="algebra.html#lin_dep" xlink:title="Линейная зависимость">
<ellipse fill="none" stroke="black" cx="798.38" cy="-287" rx="120.78" ry="18"/>
<text text-anchor="middle" x="798.38" y="-283.3" font-family="Times,serif" font-size="14.00">Линейная зависимость</text>
</a>
</g>
</g>
<!-- lin_comb&#45;&gt;lin_dep -->
<g id="edge32" class="edge">
<title>lin_comb&#45;&gt;lin_dep</title>
<path fill="none" stroke="black" d="M340.17,-287C435.45,-287 568.7,-287 666.77,-287"/>
<polygon fill="black" stroke="black" points="667.05,-290.5 677.05,-287 667.05,-283.5 667.05,-290.5"/>
</g>
<!-- lin_indep -->
<g id="node34" class="node">
<title>lin_indep</title>
<g id="a_node34"><a xlink:href="algebra.html#lin_indep" xlink:title="Линейно независимые строки">
<ellipse fill="none" stroke="black" cx="1418.03" cy="-333" rx="154.87" ry="18"/>
<text text-anchor="middle" x="1418.03" y="-329.3" font-family="Times,serif" font-size="14.00">Линейно независимые строки</text>
</a>
</g>
</g>
<!-- lin_comb&#45;&gt;lin_indep -->
<g id="edge33" class="edge">
<title>lin_comb&#45;&gt;lin_indep</title>
<path fill="none" stroke="black" d="M311.87,-298.58C360.35,-304.25 421,-310.58 475.36,-314 747.78,-331.16 1065.32,-334.02 1253.3,-333.93"/>
<polygon fill="black" stroke="black" points="1253.55,-337.43 1263.55,-333.92 1253.54,-330.43 1253.55,-337.43"/>
</g>
<!-- lin_dep_criteria -->
<g id="node35" class="node">
<title>lin_dep_criteria</title>
<g id="a_node35"><a xlink:href="algebra.html#lin_dep_criteria" xlink:title="Критерий линейной зависимости">
<ellipse fill="none" stroke="black" cx="1418.03" cy="-241" rx="168.97" ry="18"/>
<text text-anchor="middle" x="1418.03" y="-237.3" font-family="Times,serif" font-size="14.00">Критерий линейной зависимости</text>
</a>
</g>
</g>
<!-- lin_comb&#45;&gt;lin_dep_criteria -->
<g id="edge34" class="edge">
<title>lin_comb&#45;&gt;lin_dep_criteria</title>
<path fill="none" stroke="black" d="M311.87,-275.42C360.35,-269.75 421,-263.42 475.36,-260 740.9,-243.28 1049.31,-240.14 1238.82,-240.07"/>
<polygon fill="black" stroke="black" points="1238.87,-243.57 1248.87,-240.07 1238.87,-236.57 1238.87,-243.57"/>
</g>
<!-- lin_comb&#45;&gt;solution_structure_o -->
<g id="edge36" class="edge">
<title>lin_comb&#45;&gt;solution_structure_o</title>
<path fill="none" stroke="black" d="M283.56,-271.74C334.84,-260 409.33,-244.55 475.36,-237 1151.26,-159.76 1963.51,-202.6 2311.52,-227.33"/>
<polygon fill="black" stroke="black" points="2311.46,-230.84 2321.68,-228.06 2311.96,-223.85 2311.46,-230.84"/>
</g>
<!-- lin_dep&#45;&gt;lin_indep -->
<g id="edge37" class="edge">
<title>lin_dep&#45;&gt;lin_indep</title>
<path fill="none" stroke="black" d="M906.97,-295.01C1009.72,-302.66 1165.1,-314.24 1277.36,-322.6"/>
<polygon fill="black" stroke="black" points="1277.17,-326.09 1287.4,-323.35 1277.69,-319.11 1277.17,-326.09"/>
</g>
<!-- lin_dep&#45;&gt;lin_dep_criteria -->
<g id="edge38" class="edge">
<title>lin_dep&#45;&gt;lin_dep_criteria</title>
<path fill="none" stroke="black" d="M906.97,-278.99C1007.2,-271.52 1157.52,-260.33 1269.04,-252.02"/>
<polygon fill="black" stroke="black" points="1269.31,-255.51 1279.02,-251.28 1268.79,-248.53 1269.31,-255.51"/>
</g>
<!-- lin_indep&#45;&gt;matrix_nondegeneracy -->
<g id="edge41" class="edge">
<title>lin_indep&#45;&gt;matrix_nondegeneracy</title>
<path fill="none" stroke="black" d="M1505.59,-347.9C1557.08,-358.41 1623.02,-374.79 1678.66,-398 1776.68,-438.9 1880.64,-509.98 1931.72,-547.01"/>
<polygon fill="black" stroke="black" points="1929.9,-550.02 1940.05,-553.09 1934.03,-544.36 1929.9,-550.02"/>
</g>
<!-- lin_indep&#45;&gt;matrix_ran_theorem -->
<g id="edge40" class="edge">
<title>lin_indep&#45;&gt;matrix_ran_theorem</title>
<path fill="none" stroke="black" d="M1572.91,-333.19C1733.37,-334.21 1992.1,-338.14 2215.11,-352 2267.03,-355.23 2324.42,-360.74 2372.76,-365.94"/>
<polygon fill="black" stroke="black" points="2372.61,-369.45 2382.93,-367.05 2373.37,-362.49 2372.61,-369.45"/>
</g>
<!-- lin_indep&#45;&gt;SLE_FSS -->
<g id="edge42" class="edge">
<title>lin_indep&#45;&gt;SLE_FSS</title>
<path fill="none" stroke="black" d="M1543.69,-322.48C1650.01,-313.5 1799.38,-300.89 1888.43,-293.37"/>
<polygon fill="black" stroke="black" points="1888.78,-296.85 1898.45,-292.52 1888.19,-289.88 1888.78,-296.85"/>
</g>
<!-- lin_indep&#45;&gt;basic_minor_theorem -->
<g id="edge39" class="edge">
<title>lin_indep&#45;&gt;basic_minor_theorem</title>
<path fill="none" stroke="black" d="M1543.69,-343.52C1630.5,-350.85 1746.01,-360.61 1833.95,-368.03"/>
<polygon fill="black" stroke="black" points="1833.74,-371.52 1844,-368.88 1834.33,-364.55 1833.74,-371.52"/>
</g>
<!-- solution_structure -->
<g id="node37" class="node">
<title>solution_structure</title>
<g id="a_node37"><a xlink:href="algebra.html#solution_structure" xlink:title="Структура общего решения неоднородной СЛАУ">
<ellipse fill="none" stroke="black" cx="2998.15" cy="-241" rx="244.26" ry="18"/>
<text text-anchor="middle" x="2998.15" y="-237.3" font-family="Times,serif" font-size="14.00">Структура общего решения неоднородной СЛАУ</text>
</a>
</g>
</g>
<!-- solution_structure_o&#45;&gt;solution_structure -->
<g id="edge45" class="edge">
<title>solution_structure_o&#45;&gt;solution_structure</title>
<path fill="none" stroke="black" d="M2718.09,-241C2726.44,-241 2734.83,-241 2743.21,-241"/>
<polygon fill="black" stroke="black" points="2743.43,-244.5 2753.43,-241 2743.43,-237.5 2743.43,-244.5"/>
</g>
<!-- complex_forms -->
<g id="node38" class="node">
<title>complex_forms</title>
<g id="a_node38"><a xlink:href="algebra.html#complex_forms" xlink:title="Формы записи комплексных чисел">
<ellipse fill="none" stroke="black" cx="219.68" cy="-1183" rx="178.17" ry="18"/>
<text text-anchor="middle" x="219.68" y="-1179.3" font-family="Times,serif" font-size="14.00">Формы записи комплексных чисел</text>
</a>
</g>
</g>
<!-- complex_mod -->
<g id="node39" class="node">
<title>complex_mod</title>
<g id="a_node39"><a xlink:href="algebra.html#complex_mod" xlink:title="Модуль, аргумент и его главное значение у комплексного числа">
<ellipse fill="none" stroke="black" cx="798.38" cy="-1237" rx="323.04" ry="18"/>
<text text-anchor="middle" x="798.38" y="-1233.3" font-family="Times,serif" font-size="14.00">Модуль, аргумент и его главное значение у комплексного числа</text>
</a>
</g>
</g>
<!-- complex_forms&#45;&gt;complex_mod -->
<g id="edge46" class="edge">
<title>complex_forms&#45;&gt;complex_mod</title>
<path fill="none" stroke="black" d="M340.47,-1196.25C383.04,-1200.81 431.32,-1205.82 475.36,-1210 516.6,-1213.91 560.83,-1217.82 602.91,-1221.39"/>
<polygon fill="black" stroke="black" points="602.72,-1224.88 612.98,-1222.24 603.31,-1217.91 602.72,-1224.88"/>
</g>
<!-- complex_ops -->
<g id="node40" class="node">
<title>complex_ops</title>
<g id="a_node40"><a xlink:href="algebra.html#complex_ops" xlink:title="Сложение и умножение комплексных чисел">
<ellipse fill="none" stroke="black" cx="798.38" cy="-1183" rx="224.46" ry="18"/>
<text text-anchor="middle" x="798.38" y="-1179.3" font-family="Times,serif" font-size="14.00">Сложение и умножение комплексных чисел</text>
</a>
</g>
</g>
<!-- complex_forms&#45;&gt;complex_ops -->
<g id="edge47" class="edge">
<title>complex_forms&#45;&gt;complex_ops</title>
<path fill="none" stroke="black" d="M398.02,-1183C450.38,-1183 508.49,-1183 563.82,-1183"/>
<polygon fill="black" stroke="black" points="564.11,-1186.5 574.11,-1183 564.11,-1179.5 564.11,-1186.5"/>
</g>
<!-- complex_Euiler -->
<g id="node41" class="node">
<title>complex_Euiler</title>
<g id="a_node41"><a xlink:href="algebra.html#complex_Euiler" xlink:title="Формула Эйлера">
<ellipse fill="none" stroke="black" cx="798.38" cy="-1129" rx="90.98" ry="18"/>
<text text-anchor="middle" x="798.38" y="-1125.3" font-family="Times,serif" font-size="14.00">Формула Эйлера</text>
</a>
</g>
</g>
<!-- complex_forms&#45;&gt;complex_Euiler -->
<g id="edge48" class="edge">
<title>complex_forms&#45;&gt;complex_Euiler</title>
<path fill="none" stroke="black" d="M340.47,-1169.75C383.04,-1165.19 431.32,-1160.18 475.36,-1156 551.97,-1148.73 638.93,-1141.5 703.15,-1136.35"/>
<polygon fill="black" stroke="black" points="703.57,-1139.83 713.26,-1135.54 703.01,-1132.85 703.57,-1139.83"/>
</g>
<!-- complex_conj -->
<g id="node42" class="node">
<title>complex_conj</title>
<g id="a_node42"><a xlink:href="algebra.html#complex_conj" xlink:title="Комплексное сопряжение и деление">
<ellipse fill="none" stroke="black" cx="1418.03" cy="-1229" rx="186.57" ry="18"/>
<text text-anchor="middle" x="1418.03" y="-1225.3" font-family="Times,serif" font-size="14.00">Комплексное сопряжение и деление</text>
</a>
</g>
</g>
<!-- complex_ops&#45;&gt;complex_conj -->
<g id="edge49" class="edge">
<title>complex_ops&#45;&gt;complex_conj</title>
<path fill="none" stroke="black" d="M963.28,-1195.21C1055.08,-1202.04 1168.98,-1210.53 1259.7,-1217.28"/>
<polygon fill="black" stroke="black" points="1259.57,-1220.78 1269.8,-1218.03 1260.09,-1213.8 1259.57,-1220.78"/>
</g>
<!-- complex_Moivre -->
<g id="node43" class="node">
<title>complex_Moivre</title>
<g id="a_node43"><a xlink:href="algebra.html#complex_Moivre" xlink:title="Формула Муавра">
<ellipse fill="none" stroke="black" cx="1418.03" cy="-1175" rx="92.88" ry="18"/>
<text text-anchor="middle" x="1418.03" y="-1171.3" font-family="Times,serif" font-size="14.00">Формула Муавра</text>
</a>
</g>
</g>
<!-- complex_ops&#45;&gt;complex_Moivre -->
<g id="edge50" class="edge">
<title>complex_ops&#45;&gt;complex_Moivre</title>
<path fill="none" stroke="black" d="M1020.19,-1180.14C1120.81,-1178.84 1235.04,-1177.36 1315.02,-1176.32"/>
<polygon fill="black" stroke="black" points="1315.14,-1179.82 1325.09,-1176.19 1315.05,-1172.82 1315.14,-1179.82"/>
</g>
<!-- complex_roots -->
<g id="node44" class="node">
<title>complex_roots</title>
<g id="a_node44"><a xlink:href="algebra.html#complex_roots" xlink:title="Корни n&#45;ой степени из комплексного числа">
<ellipse fill="none" stroke="black" cx="219.68" cy="-1237" rx="219.86" ry="18"/>
<text text-anchor="middle" x="219.68" y="-1233.3" font-family="Times,serif" font-size="14.00">Корни n&#45;ой степени из комплексного числа</text>
</a>
</g>
</g>
<!-- main_theorem -->
<g id="node45" class="node">
<title>main_theorem</title>
<g id="a_node45"><a xlink:href="algebra.html#main_theorem" xlink:title="Основная теорема алгебры">
<ellipse fill="none" stroke="black" cx="219.68" cy="-1291" rx="141.88" ry="18"/>
<text text-anchor="middle" x="219.68" y="-1287.3" font-family="Times,serif" font-size="14.00">Основная теорема алгебры</text>
</a>
</g>
</g>
<!-- polynom_irreducable -->
<g id="node46" class="node">
<title>polynom_irreducable</title>
<g id="a_node46"><a xlink:href="algebra.html#polynom_irreducable" xlink:title="Неприводимый многочлен">
<ellipse fill="none" stroke="black" cx="219.68" cy="-1345" rx="138.38" ry="18"/>
<text text-anchor="middle" x="219.68" y="-1341.3" font-family="Times,serif" font-size="14.00">Неприводимый многочлен</text>
</a>
</g>
</g>
<!-- polynom_complex_reduce -->
<g id="node47" class="node">
<title>polynom_complex_reduce</title>
<g id="a_node47"><a xlink:href="algebra.html#polynom_complex_reduce" xlink:title="О разложении многочлена над ℂ">
<ellipse fill="none" stroke="black" cx="798.38" cy="-1345" rx="168.97" ry="18"/>
<text text-anchor="middle" x="798.38" y="-1341.3" font-family="Times,serif" font-size="14.00">О разложении многочлена над ℂ</text>
</a>
</g>
</g>
<!-- polynom_irreducable&#45;&gt;polynom_complex_reduce -->
<g id="edge51" class="edge">
<title>polynom_irreducable&#45;&gt;polynom_complex_reduce</title>
<path fill="none" stroke="black" d="M358.45,-1345C436.57,-1345 535.19,-1345 619.16,-1345"/>
<polygon fill="black" stroke="black" points="619.32,-1348.5 629.32,-1345 619.32,-1341.5 619.32,-1348.5"/>
</g>
<!-- group&#45;theory -->
<g id="node48" class="node">
<title>group&#45;theory</title>
<g id="a_node48"><a xlink:href="algebra.html#group-theory" xlink:title="Теория групп">
<ellipse fill="none" stroke="black" cx="1418.03" cy="-717" rx="75.29" ry="18"/>
<text text-anchor="middle" x="1418.03" y="-713.3" font-family="Times,serif" font-size="14.00">Теория групп</text>
</a>
</g>
</g>
<!-- group&#45;theory&#45;&gt;simm_group -->
<g id="edge52" class="edge">
<title>group&#45;theory&#45;&gt;simm_group</title>
<path fill="none" stroke="black" d="M1493.65,-717C1578.77,-717 1719.81,-717 1825.26,-717"/>
<polygon fill="black" stroke="black" points="1825.35,-720.5 1835.35,-717 1825.35,-713.5 1825.35,-720.5"/>
</g>
<!-- group&#45;theory&#45;&gt;lin_group -->
<g id="edge53" class="edge">
<title>group&#45;theory&#45;&gt;lin_group</title>
<path fill="none" stroke="black" d="M1488.04,-710.16C1570.63,-701.97 1711.19,-688.04 1818.19,-677.44"/>
<polygon fill="black" stroke="black" points="1818.83,-680.89 1828.44,-676.42 1818.14,-673.93 1818.83,-680.89"/>
</g>
<!-- group&#45;theory&#45;&gt;group_homo -->
<g id="edge54" class="edge">
<title>group&#45;theory&#45;&gt;group_homo</title>
<path fill="none" stroke="black" d="M1488.04,-723.84C1582.17,-733.17 1751.59,-749.96 1860.82,-760.78"/>
<polygon fill="black" stroke="black" points="1860.57,-764.28 1870.86,-761.78 1861.26,-757.31 1860.57,-764.28"/>
</g>
<!-- group&#45;theory&#45;&gt;group_iso -->
<g id="edge55" class="edge">
<title>group&#45;theory&#45;&gt;group_iso</title>
<path fill="none" stroke="black" d="M1485.78,-725.02C1541.33,-728.37 1620.47,-725.14 1678.66,-690 1703.35,-675.09 1689.23,-649.61 1714.66,-636 1812.71,-583.52 2104.53,-624.19 2215.11,-636 2285.94,-643.57 2365.52,-662.07 2419.49,-676.15"/>
<polygon fill="black" stroke="black" points="2418.7,-679.56 2429.27,-678.73 2420.49,-672.8 2418.7,-679.56"/>
</g>
<!-- subgroup -->
<g id="node50" class="node">
<title>subgroup</title>
<g id="a_node50"><a xlink:href="algebra.html#subgroup" xlink:title="Подгруппа">
<ellipse fill="none" stroke="black" cx="1418.03" cy="-663" rx="62.29" ry="18"/>
<text text-anchor="middle" x="1418.03" y="-659.3" font-family="Times,serif" font-size="14.00">Подгруппа</text>
</a>
</g>
</g>
<!-- subgroup&#45;&gt;lin_group -->
<g id="edge56" class="edge">
<title>subgroup&#45;&gt;lin_group</title>
<path fill="none" stroke="black" d="M1480.47,-663C1545.99,-663 1653.46,-663 1750.45,-663"/>
<polygon fill="black" stroke="black" points="1750.71,-666.5 1760.71,-663 1750.71,-659.5 1750.71,-666.5"/>
</g>
<!-- elem_ord -->
<g id="node51" class="node">
<title>elem_ord</title>
<g id="a_node51"><a xlink:href="algebra.html#elem_ord" xlink:title="Порядок элемента группы">
<ellipse fill="none" stroke="black" cx="219.68" cy="-1399" rx="137.58" ry="18"/>
<text text-anchor="middle" x="219.68" y="-1395.3" font-family="Times,serif" font-size="14.00">Порядок элемента группы</text>
</a>
</g>
</g>
</g>
</svg>
