<?xml version="1.0" encoding="UTF-8" standalone="no"?>
<!DOCTYPE svg PUBLIC "-//W3C//DTD SVG 1.1//EN"
 "http://www.w3.org/Graphics/SVG/1.1/DTD/svg11.dtd">
<!-- Generated by graphviz version 2.43.0 (0)
 -->
<!-- Title: %3 Pages: 1 -->
<svg width="3251pt" height="1143pt"
 viewBox="0.00 0.00 3250.53 1143.00" xmlns="http://www.w3.org/2000/svg" xmlns:xlink="http://www.w3.org/1999/xlink">
<g id="graph0" class="graph" transform="scale(1 1) rotate(0) translate(4 1139)">
<title>%3</title>
<polygon fill="white" stroke="transparent" points="-4,4 -4,-1139 3246.53,-1139 3246.53,4 -4,4"/>
<!-- description -->
<g id="node1" class="node">
<title>description</title>
<g id="a_node1"><a xlink:href="algebra.html#description" xlink:title="Карточки по алгебре">
<ellipse fill="none" stroke="black" cx="219.68" cy="-18" rx="111.58" ry="18"/>
<text text-anchor="middle" x="219.68" y="-14.3" font-family="Times,serif" font-size="14.00">Карточки по алгебре</text>
</a>
</g>
</g>
<!-- matrix_mul -->
<g id="node2" class="node">
<title>matrix_mul</title>
<g id="a_node2"><a xlink:href="algebra.html#matrix_mul" xlink:title="Умножение матриц">
<ellipse fill="none" stroke="black" cx="219.68" cy="-72" rx="104.78" ry="18"/>
<text text-anchor="middle" x="219.68" y="-68.3" font-family="Times,serif" font-size="14.00">Умножение матриц</text>
</a>
</g>
</g>
<!-- matrix_stair -->
<g id="node3" class="node">
<title>matrix_stair</title>
<g id="a_node3"><a xlink:href="algebra.html#matrix_stair" xlink:title="Ступенчатый вид матриц">
<ellipse fill="none" stroke="black" cx="219.68" cy="-126" rx="131.88" ry="18"/>
<text text-anchor="middle" x="219.68" y="-122.3" font-family="Times,serif" font-size="14.00">Ступенчатый вид матриц</text>
</a>
</g>
</g>
<!-- matrix_canon -->
<g id="node4" class="node">
<title>matrix_canon</title>
<g id="a_node4"><a xlink:href="algebra.html#matrix_canon" xlink:title="Канонический вид матрицы">
<ellipse fill="none" stroke="black" cx="798.38" cy="-149" rx="144.07" ry="18"/>
<text text-anchor="middle" x="798.38" y="-145.3" font-family="Times,serif" font-size="14.00">Канонический вид матрицы</text>
</a>
</g>
</g>
<!-- matrix_stair&#45;&gt;matrix_canon -->
<g id="edge1" class="edge">
<title>matrix_stair&#45;&gt;matrix_canon</title>
<path fill="none" stroke="black" d="M346.53,-131.02C436.06,-134.59 556.64,-139.4 650.56,-143.14"/>
<polygon fill="black" stroke="black" points="650.59,-146.65 660.72,-143.55 650.87,-139.65 650.59,-146.65"/>
</g>
<!-- matrix_gauss -->
<g id="node5" class="node">
<title>matrix_gauss</title>
<g id="a_node5"><a xlink:href="algebra.html#matrix_gauss" xlink:title="Теорема о методе Гаусса">
<ellipse fill="none" stroke="black" cx="1418.03" cy="-103" rx="130.78" ry="18"/>
<text text-anchor="middle" x="1418.03" y="-99.3" font-family="Times,serif" font-size="14.00">Теорема о методе Гаусса</text>
</a>
</g>
</g>
<!-- matrix_stair&#45;&gt;matrix_gauss -->
<g id="edge2" class="edge">
<title>matrix_stair&#45;&gt;matrix_gauss</title>
<path fill="none" stroke="black" d="M350.42,-123.51C577.51,-119.14 1045.03,-110.15 1278.3,-105.67"/>
<polygon fill="black" stroke="black" points="1278.62,-109.16 1288.55,-105.47 1278.48,-102.16 1278.62,-109.16"/>
</g>
<!-- matrix_canon&#45;&gt;matrix_gauss -->
<g id="edge3" class="edge">
<title>matrix_canon&#45;&gt;matrix_gauss</title>
<path fill="none" stroke="black" d="M922.89,-139.8C1030.23,-131.81 1184.97,-120.28 1292.59,-112.27"/>
<polygon fill="black" stroke="black" points="1293.14,-115.74 1302.85,-111.5 1292.62,-108.76 1293.14,-115.74"/>
</g>
<!-- matrix_transform -->
<g id="node6" class="node">
<title>matrix_transform</title>
<g id="a_node6"><a xlink:href="algebra.html#matrix_transform" xlink:title="Элементарные преобразования строк">
<ellipse fill="none" stroke="black" cx="798.38" cy="-57" rx="192.27" ry="18"/>
<text text-anchor="middle" x="798.38" y="-53.3" font-family="Times,serif" font-size="14.00">Элементарные преобразования строк</text>
</a>
</g>
</g>
<!-- matrix_transform&#45;&gt;matrix_gauss -->
<g id="edge4" class="edge">
<title>matrix_transform&#45;&gt;matrix_gauss</title>
<path fill="none" stroke="black" d="M949.29,-68.16C1054.4,-75.99 1193.28,-86.34 1292.34,-93.71"/>
<polygon fill="black" stroke="black" points="1292.17,-97.21 1302.4,-94.46 1292.69,-90.23 1292.17,-97.21"/>
</g>
<!-- perm -->
<g id="node7" class="node">
<title>perm</title>
<g id="a_node7"><a xlink:href="algebra.html#perm" xlink:title="Перестановка">
<ellipse fill="none" stroke="black" cx="219.68" cy="-206" rx="77.99" ry="18"/>
<text text-anchor="middle" x="219.68" y="-202.3" font-family="Times,serif" font-size="14.00">Перестановка</text>
</a>
</g>
</g>
<!-- subst -->
<g id="node8" class="node">
<title>subst</title>
<g id="a_node8"><a xlink:href="algebra.html#subst" xlink:title="Подстановка">
<ellipse fill="none" stroke="black" cx="798.38" cy="-825" rx="72.29" ry="18"/>
<text text-anchor="middle" x="798.38" y="-821.3" font-family="Times,serif" font-size="14.00">Подстановка</text>
</a>
</g>
</g>
<!-- subst_sign -->
<g id="node9" class="node">
<title>subst_sign</title>
<g id="a_node9"><a xlink:href="algebra.html#subst_sign" xlink:title="Знак подстановки">
<ellipse fill="none" stroke="black" cx="1418.03" cy="-871" rx="96.68" ry="18"/>
<text text-anchor="middle" x="1418.03" y="-867.3" font-family="Times,serif" font-size="14.00">Знак подстановки</text>
</a>
</g>
</g>
<!-- subst&#45;&gt;subst_sign -->
<g id="edge5" class="edge">
<title>subst&#45;&gt;subst_sign</title>
<path fill="none" stroke="black" d="M867.84,-830.1C977.17,-838.24 1191.67,-854.22 1317.81,-863.61"/>
<polygon fill="black" stroke="black" points="1317.63,-867.11 1327.86,-864.36 1318.15,-860.13 1317.63,-867.11"/>
</g>
<!-- subst_even -->
<g id="node10" class="node">
<title>subst_even</title>
<g id="a_node10"><a xlink:href="algebra.html#subst_even" xlink:title="Чётность подстановки">
<ellipse fill="none" stroke="black" cx="1964.89" cy="-879" rx="116.18" ry="18"/>
<text text-anchor="middle" x="1964.89" y="-875.3" font-family="Times,serif" font-size="14.00">Чётность подстановки</text>
</a>
</g>
</g>
<!-- subst&#45;&gt;subst_even -->
<g id="edge6" class="edge">
<title>subst&#45;&gt;subst_even</title>
<path fill="none" stroke="black" d="M869.53,-821.85C1018.95,-816.16 1379.46,-807.88 1678.66,-844 1694.93,-845.96 1698.49,-849.34 1714.66,-852 1759.28,-859.35 1808.75,-865.18 1851.77,-869.52"/>
<polygon fill="black" stroke="black" points="1851.69,-873.03 1861.98,-870.53 1852.38,-866.06 1851.69,-873.03"/>
</g>
<!-- matrix_det -->
<g id="node11" class="node">
<title>matrix_det</title>
<g id="a_node11"><a xlink:href="algebra.html#matrix_det" xlink:title="Определитель">
<ellipse fill="none" stroke="black" cx="1418.03" cy="-771" rx="78.79" ry="18"/>
<text text-anchor="middle" x="1418.03" y="-767.3" font-family="Times,serif" font-size="14.00">Определитель</text>
</a>
</g>
</g>
<!-- subst&#45;&gt;matrix_det -->
<g id="edge7" class="edge">
<title>subst&#45;&gt;matrix_det</title>
<path fill="none" stroke="black" d="M866.66,-819.12C980.39,-809.17 1210.34,-789.07 1333.95,-778.26"/>
<polygon fill="black" stroke="black" points="1334.46,-781.73 1344.12,-777.37 1333.85,-774.76 1334.46,-781.73"/>
</g>
<!-- subst_sign&#45;&gt;subst_even -->
<g id="edge10" class="edge">
<title>subst_sign&#45;&gt;subst_even</title>
<path fill="none" stroke="black" d="M1514.87,-872.41C1604.91,-873.73 1740.17,-875.72 1838.7,-877.16"/>
<polygon fill="black" stroke="black" points="1838.67,-880.66 1848.72,-877.31 1838.77,-873.66 1838.67,-880.66"/>
</g>
<!-- det_decomposition -->
<g id="node13" class="node">
<title>det_decomposition</title>
<g id="a_node13"><a xlink:href="algebra.html#det_decomposition" xlink:title="Разложение определителя по столбцу (строке)">
<ellipse fill="none" stroke="black" cx="1964.89" cy="-717" rx="235.06" ry="18"/>
<text text-anchor="middle" x="1964.89" y="-713.3" font-family="Times,serif" font-size="14.00">Разложение определителя по столбцу (строке)</text>
</a>
</g>
</g>
<!-- matrix_det&#45;&gt;det_decomposition -->
<g id="edge11" class="edge">
<title>matrix_det&#45;&gt;det_decomposition</title>
<path fill="none" stroke="black" d="M1490.54,-763.91C1571.44,-755.89 1705.57,-742.6 1810.43,-732.21"/>
<polygon fill="black" stroke="black" points="1810.88,-735.68 1820.48,-731.21 1810.19,-728.72 1810.88,-735.68"/>
</g>
<!-- matrix_inv -->
<g id="node14" class="node">
<title>matrix_inv</title>
<g id="a_node14"><a xlink:href="algebra.html#matrix_inv" xlink:title="Обратная матрица">
<ellipse fill="none" stroke="black" cx="1964.89" cy="-825" rx="100.18" ry="18"/>
<text text-anchor="middle" x="1964.89" y="-821.3" font-family="Times,serif" font-size="14.00">Обратная матрица</text>
</a>
</g>
</g>
<!-- matrix_det&#45;&gt;matrix_inv -->
<g id="edge12" class="edge">
<title>matrix_det&#45;&gt;matrix_inv</title>
<path fill="none" stroke="black" d="M1490.54,-778.09C1586.89,-787.64 1758.75,-804.67 1866.74,-815.37"/>
<polygon fill="black" stroke="black" points="1866.69,-818.88 1876.99,-816.39 1867.38,-811.92 1866.69,-818.88"/>
</g>
<!-- matrix_nondegeneracy -->
<g id="node15" class="node">
<title>matrix_nondegeneracy</title>
<g id="a_node15"><a xlink:href="algebra.html#matrix_nondegeneracy" xlink:title="Критерий невырожденности квадратной матрицы">
<ellipse fill="none" stroke="black" cx="1964.89" cy="-571" rx="250.46" ry="18"/>
<text text-anchor="middle" x="1964.89" y="-567.3" font-family="Times,serif" font-size="14.00">Критерий невырожденности квадратной матрицы</text>
</a>
</g>
</g>
<!-- matrix_det&#45;&gt;matrix_nondegeneracy -->
<g id="edge13" class="edge">
<title>matrix_det&#45;&gt;matrix_nondegeneracy</title>
<path fill="none" stroke="black" d="M1487.67,-762.47C1543.63,-752.68 1622.34,-732.16 1678.66,-690 1701.75,-672.71 1691.16,-652.74 1714.66,-636 1746.59,-613.26 1785.87,-598.47 1823.74,-588.85"/>
<polygon fill="black" stroke="black" points="1824.95,-592.16 1833.85,-586.4 1823.3,-585.36 1824.95,-592.16"/>
</g>
<!-- SLE_nonzero_criteria -->
<g id="node16" class="node">
<title>SLE_nonzero_criteria</title>
<g id="a_node16"><a xlink:href="algebra.html#SLE_nonzero_criteria" xlink:title="Критерий существования ненулевого решения">
<ellipse fill="none" stroke="black" cx="1964.89" cy="-771" rx="235.06" ry="18"/>
<text text-anchor="middle" x="1964.89" y="-767.3" font-family="Times,serif" font-size="14.00">Критерий существования ненулевого решения</text>
</a>
</g>
</g>
<!-- matrix_det&#45;&gt;SLE_nonzero_criteria -->
<g id="edge14" class="edge">
<title>matrix_det&#45;&gt;SLE_nonzero_criteria</title>
<path fill="none" stroke="black" d="M1496.81,-771C1555.31,-771 1638.9,-771 1719.22,-771"/>
<polygon fill="black" stroke="black" points="1719.51,-774.5 1729.51,-771 1719.51,-767.5 1719.51,-774.5"/>
</g>
<!-- subst_inv -->
<g id="node12" class="node">
<title>subst_inv</title>
<g id="a_node12"><a xlink:href="algebra.html#subst_inv" xlink:title="Число инверсий в подстановке">
<ellipse fill="none" stroke="black" cx="798.38" cy="-886" rx="157.87" ry="18"/>
<text text-anchor="middle" x="798.38" y="-882.3" font-family="Times,serif" font-size="14.00">Число инверсий в подстановке</text>
</a>
</g>
</g>
<!-- subst_inv&#45;&gt;subst_sign -->
<g id="edge8" class="edge">
<title>subst_inv&#45;&gt;subst_sign</title>
<path fill="none" stroke="black" d="M953.25,-882.26C1064.88,-879.55 1212.98,-875.96 1311.46,-873.56"/>
<polygon fill="black" stroke="black" points="1311.82,-877.06 1321.73,-873.31 1311.65,-870.06 1311.82,-877.06"/>
</g>
<!-- subst_inv&#45;&gt;subst_even -->
<g id="edge9" class="edge">
<title>subst_inv&#45;&gt;subst_even</title>
<path fill="none" stroke="black" d="M946.83,-892.23C1121.53,-898.64 1421.37,-906.56 1678.66,-898 1735.86,-896.1 1799.4,-892.05 1851.97,-888.18"/>
<polygon fill="black" stroke="black" points="1852.28,-891.67 1861.99,-887.44 1851.76,-884.69 1852.28,-891.67"/>
</g>
<!-- fake_decomoposition -->
<g id="node17" class="node">
<title>fake_decomoposition</title>
<g id="a_node17"><a xlink:href="algebra.html#fake_decomoposition" xlink:title="Фальшивое разложение">
<ellipse fill="none" stroke="black" cx="2484.44" cy="-667" rx="125.38" ry="18"/>
<text text-anchor="middle" x="2484.44" y="-663.3" font-family="Times,serif" font-size="14.00">Фальшивое разложение</text>
</a>
</g>
</g>
<!-- det_decomposition&#45;&gt;fake_decomoposition -->
<g id="edge15" class="edge">
<title>det_decomposition&#45;&gt;fake_decomoposition</title>
<path fill="none" stroke="black" d="M2111.78,-702.91C2193.46,-695.01 2293.81,-685.32 2369.64,-677.99"/>
<polygon fill="black" stroke="black" points="2370.08,-681.47 2379.7,-677.02 2369.41,-674.5 2370.08,-681.47"/>
</g>
<!-- matrix_inv_formula -->
<g id="node21" class="node">
<title>matrix_inv_formula</title>
<g id="a_node21"><a xlink:href="algebra.html#matrix_inv_formula" xlink:title="Формула вычисления обратной матрицы">
<ellipse fill="none" stroke="black" cx="2484.44" cy="-773" rx="206.06" ry="18"/>
<text text-anchor="middle" x="2484.44" y="-769.3" font-family="Times,serif" font-size="14.00">Формула вычисления обратной матрицы</text>
</a>
</g>
</g>
<!-- matrix_inv&#45;&gt;matrix_inv_formula -->
<g id="edge20" class="edge">
<title>matrix_inv&#45;&gt;matrix_inv_formula</title>
<path fill="none" stroke="black" d="M2052.51,-816.3C2130.39,-808.47 2246.35,-796.82 2338.36,-787.58"/>
<polygon fill="black" stroke="black" points="2338.72,-791.06 2348.32,-786.58 2338.02,-784.09 2338.72,-791.06"/>
</g>
<!-- complementary_minor -->
<g id="node18" class="node">
<title>complementary_minor</title>
<g id="a_node18"><a xlink:href="algebra.html#complementary_minor" xlink:title="Дополняющий минор и алгебраическое дополнение">
<ellipse fill="none" stroke="black" cx="1418.03" cy="-663" rx="260.75" ry="18"/>
<text text-anchor="middle" x="1418.03" y="-659.3" font-family="Times,serif" font-size="14.00">Дополняющий минор и алгебраическое дополнение</text>
</a>
</g>
</g>
<!-- complementary_minor&#45;&gt;det_decomposition -->
<g id="edge16" class="edge">
<title>complementary_minor&#45;&gt;det_decomposition</title>
<path fill="none" stroke="black" d="M1567.91,-677.76C1643.15,-685.21 1734.33,-694.25 1810.23,-701.77"/>
<polygon fill="black" stroke="black" points="1810.06,-705.27 1820.35,-702.77 1810.75,-698.31 1810.06,-705.27"/>
</g>
<!-- complementary_minor&#45;&gt;fake_decomoposition -->
<g id="edge17" class="edge">
<title>complementary_minor&#45;&gt;fake_decomoposition</title>
<path fill="none" stroke="black" d="M1557.22,-647.75C1606.8,-642.98 1663.17,-638.35 1714.66,-636 1936.85,-625.87 1993.06,-623.22 2215.11,-636 2271.73,-639.26 2334.74,-646.36 2385.47,-652.94"/>
<polygon fill="black" stroke="black" points="2385.07,-656.42 2395.44,-654.25 2385.98,-649.48 2385.07,-656.42"/>
</g>
<!-- union_matrix -->
<g id="node19" class="node">
<title>union_matrix</title>
<g id="a_node19"><a xlink:href="algebra.html#union_matrix" xlink:title="Союзная матрица">
<ellipse fill="none" stroke="black" cx="1964.89" cy="-663" rx="96.38" ry="18"/>
<text text-anchor="middle" x="1964.89" y="-659.3" font-family="Times,serif" font-size="14.00">Союзная матрица</text>
</a>
</g>
</g>
<!-- complementary_minor&#45;&gt;union_matrix -->
<g id="edge18" class="edge">
<title>complementary_minor&#45;&gt;union_matrix</title>
<path fill="none" stroke="black" d="M1678.69,-663C1742.29,-663 1806.82,-663 1858.37,-663"/>
<polygon fill="black" stroke="black" points="1858.5,-666.5 1868.5,-663 1858.5,-659.5 1858.5,-666.5"/>
</g>
<!-- union_matrix&#45;&gt;matrix_inv_formula -->
<g id="edge19" class="edge">
<title>union_matrix&#45;&gt;matrix_inv_formula</title>
<path fill="none" stroke="black" d="M2056.52,-668.61C2104.08,-672.61 2163.12,-679.25 2215.11,-690 2289.51,-705.39 2372.74,-732.79 2426.49,-751.88"/>
<polygon fill="black" stroke="black" points="2425.59,-755.27 2436.18,-755.34 2427.94,-748.68 2425.59,-755.27"/>
</g>
<!-- kramer -->
<g id="node20" class="node">
<title>kramer</title>
<g id="a_node20"><a xlink:href="algebra.html#kramer" xlink:title="Формулы Крамера">
<ellipse fill="none" stroke="black" cx="219.68" cy="-743" rx="100.18" ry="18"/>
<text text-anchor="middle" x="219.68" y="-739.3" font-family="Times,serif" font-size="14.00">Формулы Крамера</text>
</a>
</g>
</g>
<!-- matrix_minor -->
<g id="node22" class="node">
<title>matrix_minor</title>
<g id="a_node22"><a xlink:href="algebra.html#matrix_minor" xlink:title="Миноры матрицы">
<ellipse fill="none" stroke="black" cx="219.68" cy="-452" rx="95.58" ry="18"/>
<text text-anchor="middle" x="219.68" y="-448.3" font-family="Times,serif" font-size="14.00">Миноры матрицы</text>
</a>
</g>
</g>
<!-- matrix_ran -->
<g id="node23" class="node">
<title>matrix_ran</title>
<g id="a_node23"><a xlink:href="algebra.html#matrix_ran" xlink:title="Ранг матрицы">
<ellipse fill="none" stroke="black" cx="798.38" cy="-477" rx="78.79" ry="18"/>
<text text-anchor="middle" x="798.38" y="-473.3" font-family="Times,serif" font-size="14.00">Ранг матрицы</text>
</a>
</g>
</g>
<!-- matrix_minor&#45;&gt;matrix_ran -->
<g id="edge21" class="edge">
<title>matrix_minor&#45;&gt;matrix_ran</title>
<path fill="none" stroke="black" d="M313.02,-456C422.6,-460.75 603.91,-468.61 710.88,-473.25"/>
<polygon fill="black" stroke="black" points="710.85,-476.75 720.99,-473.69 711.15,-469.76 710.85,-476.75"/>
</g>
<!-- basic_minor -->
<g id="node24" class="node">
<title>basic_minor</title>
<g id="a_node24"><a xlink:href="algebra.html#basic_minor" xlink:title="Базисный минор">
<ellipse fill="none" stroke="black" cx="1418.03" cy="-425" rx="90.98" ry="18"/>
<text text-anchor="middle" x="1418.03" y="-421.3" font-family="Times,serif" font-size="14.00">Базисный минор</text>
</a>
</g>
</g>
<!-- matrix_minor&#45;&gt;basic_minor -->
<g id="edge22" class="edge">
<title>matrix_minor&#45;&gt;basic_minor</title>
<path fill="none" stroke="black" d="M314.81,-449.88C536.46,-444.87 1089.72,-432.39 1317.07,-427.26"/>
<polygon fill="black" stroke="black" points="1317.4,-430.75 1327.32,-427.02 1317.24,-423.75 1317.4,-430.75"/>
</g>
<!-- matrix_ran&#45;&gt;matrix_nondegeneracy -->
<g id="edge25" class="edge">
<title>matrix_ran&#45;&gt;matrix_nondegeneracy</title>
<path fill="none" stroke="black" d="M856.41,-489.27C926.79,-503.86 1050.29,-527.65 1157.4,-539 1339.77,-558.32 1546.46,-566.25 1704.93,-569.39"/>
<polygon fill="black" stroke="black" points="1705.24,-572.89 1715.3,-569.59 1705.37,-565.9 1705.24,-572.89"/>
</g>
<!-- matrix_ran&#45;&gt;basic_minor -->
<g id="edge23" class="edge">
<title>matrix_ran&#45;&gt;basic_minor</title>
<path fill="none" stroke="black" d="M872.36,-470.86C984.75,-461.39 1200.15,-443.26 1323.73,-432.86"/>
<polygon fill="black" stroke="black" points="1324.26,-436.32 1333.93,-432 1323.67,-429.35 1324.26,-436.32"/>
</g>
<!-- matrix_ran_theorem -->
<g id="node25" class="node">
<title>matrix_ran_theorem</title>
<g id="a_node25"><a xlink:href="algebra.html#matrix_ran_theorem" xlink:title="Теорема о ранге матрицы">
<ellipse fill="none" stroke="black" cx="2484.44" cy="-379" rx="135.38" ry="18"/>
<text text-anchor="middle" x="2484.44" y="-375.3" font-family="Times,serif" font-size="14.00">Теорема о ранге матрицы</text>
</a>
</g>
</g>
<!-- matrix_ran&#45;&gt;matrix_ran_theorem -->
<g id="edge24" class="edge">
<title>matrix_ran&#45;&gt;matrix_ran_theorem</title>
<path fill="none" stroke="black" d="M870.27,-484.44C942.42,-491.62 1057.55,-501.96 1157.4,-506 1388.88,-515.36 1447.7,-524.11 1678.66,-506 1945.13,-485.1 2256.7,-425.86 2401.61,-396.27"/>
<polygon fill="black" stroke="black" points="2402.66,-399.62 2411.75,-394.19 2401.25,-392.77 2402.66,-399.62"/>
</g>
<!-- Kronecker&#45;Capelli -->
<g id="node26" class="node">
<title>Kronecker&#45;Capelli</title>
<g id="a_node26"><a xlink:href="algebra.html#Kronecker-Capelli" xlink:title="Теорема Кронекера&#45;Капелли">
<ellipse fill="none" stroke="black" cx="1418.03" cy="-479" rx="149.47" ry="18"/>
<text text-anchor="middle" x="1418.03" y="-475.3" font-family="Times,serif" font-size="14.00">Теорема Кронекера&#45;Капелли</text>
</a>
</g>
</g>
<!-- matrix_ran&#45;&gt;Kronecker&#45;Capelli -->
<g id="edge26" class="edge">
<title>matrix_ran&#45;&gt;Kronecker&#45;Capelli</title>
<path fill="none" stroke="black" d="M877.29,-477.25C972.56,-477.56 1136.17,-478.09 1258.34,-478.49"/>
<polygon fill="black" stroke="black" points="1258.54,-481.99 1268.55,-478.52 1258.56,-474.99 1258.54,-481.99"/>
</g>
<!-- SLE_FSS -->
<g id="node27" class="node">
<title>SLE_FSS</title>
<g id="a_node27"><a xlink:href="algebra.html#SLE_FSS" xlink:title="ФСР ОСЛАУ">
<ellipse fill="none" stroke="black" cx="1964.89" cy="-287" rx="69.59" ry="18"/>
<text text-anchor="middle" x="1964.89" y="-283.3" font-family="Times,serif" font-size="14.00">ФСР ОСЛАУ</text>
</a>
</g>
</g>
<!-- matrix_ran&#45;&gt;SLE_FSS -->
<g id="edge27" class="edge">
<title>matrix_ran&#45;&gt;SLE_FSS</title>
<path fill="none" stroke="black" d="M825.33,-459.8C882.41,-423.09 1024.42,-337.78 1157.4,-306 1293.88,-273.39 1710.83,-280.19 1885.55,-284.68"/>
<polygon fill="black" stroke="black" points="1885.62,-288.19 1895.7,-284.95 1885.8,-281.19 1885.62,-288.19"/>
</g>
<!-- basic_minor_theorem -->
<g id="node28" class="node">
<title>basic_minor_theorem</title>
<g id="a_node28"><a xlink:href="algebra.html#basic_minor_theorem" xlink:title="Теорема о базисном миноре">
<ellipse fill="none" stroke="black" cx="1964.89" cy="-379" rx="145.67" ry="18"/>
<text text-anchor="middle" x="1964.89" y="-375.3" font-family="Times,serif" font-size="14.00">Теорема о базисном миноре</text>
</a>
</g>
</g>
<!-- basic_minor&#45;&gt;basic_minor_theorem -->
<g id="edge28" class="edge">
<title>basic_minor&#45;&gt;basic_minor_theorem</title>
<path fill="none" stroke="black" d="M1502.08,-417.99C1590.37,-410.53 1731.19,-398.65 1834.14,-389.95"/>
<polygon fill="black" stroke="black" points="1834.62,-393.43 1844.29,-389.1 1834.03,-386.45 1834.62,-393.43"/>
</g>
<!-- solution_structure_o -->
<g id="node33" class="node">
<title>solution_structure_o</title>
<g id="a_node33"><a xlink:href="algebra.html#solution_structure_o" xlink:title="Структура общего решения однородной СЛАУ">
<ellipse fill="none" stroke="black" cx="2484.44" cy="-241" rx="233.16" ry="18"/>
<text text-anchor="middle" x="2484.44" y="-237.3" font-family="Times,serif" font-size="14.00">Структура общего решения однородной СЛАУ</text>
</a>
</g>
</g>
<!-- SLE_FSS&#45;&gt;solution_structure_o -->
<g id="edge41" class="edge">
<title>SLE_FSS&#45;&gt;solution_structure_o</title>
<path fill="none" stroke="black" d="M2030.91,-281.22C2103.22,-274.79 2222.77,-264.17 2320.83,-255.45"/>
<polygon fill="black" stroke="black" points="2321.2,-258.93 2330.86,-254.56 2320.59,-251.96 2321.2,-258.93"/>
</g>
<!-- basic_minor_theorem&#45;&gt;matrix_ran_theorem -->
<g id="edge40" class="edge">
<title>basic_minor_theorem&#45;&gt;matrix_ran_theorem</title>
<path fill="none" stroke="black" d="M2110.74,-379C2181.86,-379 2267.31,-379 2338.45,-379"/>
<polygon fill="black" stroke="black" points="2338.83,-382.5 2348.83,-379 2338.83,-375.5 2338.83,-382.5"/>
</g>
<!-- lin_comb -->
<g id="node29" class="node">
<title>lin_comb</title>
<g id="a_node29"><a xlink:href="algebra.html#lin_comb" xlink:title="Линейная комбинация">
<ellipse fill="none" stroke="black" cx="219.68" cy="-287" rx="120.48" ry="18"/>
<text text-anchor="middle" x="219.68" y="-283.3" font-family="Times,serif" font-size="14.00">Линейная комбинация</text>
</a>
</g>
</g>
<!-- lin_comb&#45;&gt;basic_minor_theorem -->
<g id="edge32" class="edge">
<title>lin_comb&#45;&gt;basic_minor_theorem</title>
<path fill="none" stroke="black" d="M282.5,-302.36C333.8,-314.39 408.84,-330.32 475.36,-338 961.87,-394.17 1543.46,-389.66 1813,-383.52"/>
<polygon fill="black" stroke="black" points="1813.32,-387.01 1823.24,-383.28 1813.16,-380.01 1813.32,-387.01"/>
</g>
<!-- lin_dep -->
<g id="node30" class="node">
<title>lin_dep</title>
<g id="a_node30"><a xlink:href="algebra.html#lin_dep" xlink:title="Линейная зависимость">
<ellipse fill="none" stroke="black" cx="798.38" cy="-287" rx="120.78" ry="18"/>
<text text-anchor="middle" x="798.38" y="-283.3" font-family="Times,serif" font-size="14.00">Линейная зависимость</text>
</a>
</g>
</g>
<!-- lin_comb&#45;&gt;lin_dep -->
<g id="edge29" class="edge">
<title>lin_comb&#45;&gt;lin_dep</title>
<path fill="none" stroke="black" d="M340.17,-287C435.45,-287 568.7,-287 666.77,-287"/>
<polygon fill="black" stroke="black" points="667.05,-290.5 677.05,-287 667.05,-283.5 667.05,-290.5"/>
</g>
<!-- lin_indep -->
<g id="node31" class="node">
<title>lin_indep</title>
<g id="a_node31"><a xlink:href="algebra.html#lin_indep" xlink:title="Линейно независимые строки">
<ellipse fill="none" stroke="black" cx="1418.03" cy="-333" rx="154.87" ry="18"/>
<text text-anchor="middle" x="1418.03" y="-329.3" font-family="Times,serif" font-size="14.00">Линейно независимые строки</text>
</a>
</g>
</g>
<!-- lin_comb&#45;&gt;lin_indep -->
<g id="edge30" class="edge">
<title>lin_comb&#45;&gt;lin_indep</title>
<path fill="none" stroke="black" d="M311.87,-298.58C360.35,-304.25 421,-310.58 475.36,-314 747.78,-331.16 1065.32,-334.02 1253.3,-333.93"/>
<polygon fill="black" stroke="black" points="1253.55,-337.43 1263.55,-333.92 1253.54,-330.43 1253.55,-337.43"/>
</g>
<!-- lin_dep_criteria -->
<g id="node32" class="node">
<title>lin_dep_criteria</title>
<g id="a_node32"><a xlink:href="algebra.html#lin_dep_criteria" xlink:title="Критерий линейной зависимости">
<ellipse fill="none" stroke="black" cx="1418.03" cy="-241" rx="168.97" ry="18"/>
<text text-anchor="middle" x="1418.03" y="-237.3" font-family="Times,serif" font-size="14.00">Критерий линейной зависимости</text>
</a>
</g>
</g>
<!-- lin_comb&#45;&gt;lin_dep_criteria -->
<g id="edge31" class="edge">
<title>lin_comb&#45;&gt;lin_dep_criteria</title>
<path fill="none" stroke="black" d="M311.87,-275.42C360.35,-269.75 421,-263.42 475.36,-260 740.9,-243.28 1049.31,-240.14 1238.82,-240.07"/>
<polygon fill="black" stroke="black" points="1238.87,-243.57 1248.87,-240.07 1238.87,-236.57 1238.87,-243.57"/>
</g>
<!-- lin_comb&#45;&gt;solution_structure_o -->
<g id="edge33" class="edge">
<title>lin_comb&#45;&gt;solution_structure_o</title>
<path fill="none" stroke="black" d="M283.56,-271.74C334.84,-260 409.33,-244.55 475.36,-237 1151.26,-159.76 1963.51,-202.6 2311.52,-227.33"/>
<polygon fill="black" stroke="black" points="2311.46,-230.84 2321.68,-228.06 2311.96,-223.85 2311.46,-230.84"/>
</g>
<!-- lin_dep&#45;&gt;lin_indep -->
<g id="edge34" class="edge">
<title>lin_dep&#45;&gt;lin_indep</title>
<path fill="none" stroke="black" d="M906.97,-295.01C1009.72,-302.66 1165.1,-314.24 1277.36,-322.6"/>
<polygon fill="black" stroke="black" points="1277.17,-326.09 1287.4,-323.35 1277.69,-319.11 1277.17,-326.09"/>
</g>
<!-- lin_dep&#45;&gt;lin_dep_criteria -->
<g id="edge35" class="edge">
<title>lin_dep&#45;&gt;lin_dep_criteria</title>
<path fill="none" stroke="black" d="M906.97,-278.99C1007.2,-271.52 1157.52,-260.33 1269.04,-252.02"/>
<polygon fill="black" stroke="black" points="1269.31,-255.51 1279.02,-251.28 1268.79,-248.53 1269.31,-255.51"/>
</g>
<!-- lin_indep&#45;&gt;matrix_nondegeneracy -->
<g id="edge38" class="edge">
<title>lin_indep&#45;&gt;matrix_nondegeneracy</title>
<path fill="none" stroke="black" d="M1505.59,-347.9C1557.08,-358.41 1623.02,-374.79 1678.66,-398 1776.68,-438.9 1880.64,-509.98 1931.72,-547.01"/>
<polygon fill="black" stroke="black" points="1929.9,-550.02 1940.05,-553.09 1934.03,-544.36 1929.9,-550.02"/>
</g>
<!-- lin_indep&#45;&gt;matrix_ran_theorem -->
<g id="edge37" class="edge">
<title>lin_indep&#45;&gt;matrix_ran_theorem</title>
<path fill="none" stroke="black" d="M1572.91,-333.19C1733.37,-334.21 1992.1,-338.14 2215.11,-352 2267.03,-355.23 2324.42,-360.74 2372.76,-365.94"/>
<polygon fill="black" stroke="black" points="2372.61,-369.45 2382.93,-367.05 2373.37,-362.49 2372.61,-369.45"/>
</g>
<!-- lin_indep&#45;&gt;SLE_FSS -->
<g id="edge39" class="edge">
<title>lin_indep&#45;&gt;SLE_FSS</title>
<path fill="none" stroke="black" d="M1543.69,-322.48C1650.01,-313.5 1799.38,-300.89 1888.43,-293.37"/>
<polygon fill="black" stroke="black" points="1888.78,-296.85 1898.45,-292.52 1888.19,-289.88 1888.78,-296.85"/>
</g>
<!-- lin_indep&#45;&gt;basic_minor_theorem -->
<g id="edge36" class="edge">
<title>lin_indep&#45;&gt;basic_minor_theorem</title>
<path fill="none" stroke="black" d="M1543.69,-343.52C1630.5,-350.85 1746.01,-360.61 1833.95,-368.03"/>
<polygon fill="black" stroke="black" points="1833.74,-371.52 1844,-368.88 1834.33,-364.55 1833.74,-371.52"/>
</g>
<!-- solution_structure -->
<g id="node34" class="node">
<title>solution_structure</title>
<g id="a_node34"><a xlink:href="algebra.html#solution_structure" xlink:title="Структура общего решения неоднородной СЛАУ">
<ellipse fill="none" stroke="black" cx="2998.15" cy="-241" rx="244.26" ry="18"/>
<text text-anchor="middle" x="2998.15" y="-237.3" font-family="Times,serif" font-size="14.00">Структура общего решения неоднородной СЛАУ</text>
</a>
</g>
</g>
<!-- solution_structure_o&#45;&gt;solution_structure -->
<g id="edge42" class="edge">
<title>solution_structure_o&#45;&gt;solution_structure</title>
<path fill="none" stroke="black" d="M2718.09,-241C2726.44,-241 2734.83,-241 2743.21,-241"/>
<polygon fill="black" stroke="black" points="2743.43,-244.5 2753.43,-241 2743.43,-237.5 2743.43,-244.5"/>
</g>
<!-- complex_forms -->
<g id="node35" class="node">
<title>complex_forms</title>
<g id="a_node35"><a xlink:href="algebra.html#complex_forms" xlink:title="Формы записи комплексных чисел">
<ellipse fill="none" stroke="black" cx="219.68" cy="-1009" rx="178.17" ry="18"/>
<text text-anchor="middle" x="219.68" y="-1005.3" font-family="Times,serif" font-size="14.00">Формы записи комплексных чисел</text>
</a>
</g>
</g>
<!-- complex_mod -->
<g id="node36" class="node">
<title>complex_mod</title>
<g id="a_node36"><a xlink:href="algebra.html#complex_mod" xlink:title="Модуль, аргумент и его главное значение у комплексного числа">
<ellipse fill="none" stroke="black" cx="798.38" cy="-1063" rx="323.04" ry="18"/>
<text text-anchor="middle" x="798.38" y="-1059.3" font-family="Times,serif" font-size="14.00">Модуль, аргумент и его главное значение у комплексного числа</text>
</a>
</g>
</g>
<!-- complex_forms&#45;&gt;complex_mod -->
<g id="edge43" class="edge">
<title>complex_forms&#45;&gt;complex_mod</title>
<path fill="none" stroke="black" d="M340.47,-1022.25C383.04,-1026.81 431.32,-1031.82 475.36,-1036 516.6,-1039.91 560.83,-1043.82 602.91,-1047.39"/>
<polygon fill="black" stroke="black" points="602.72,-1050.88 612.98,-1048.24 603.31,-1043.91 602.72,-1050.88"/>
</g>
<!-- complex_ops -->
<g id="node37" class="node">
<title>complex_ops</title>
<g id="a_node37"><a xlink:href="algebra.html#complex_ops" xlink:title="Сложение и умножение комплексных чисел">
<ellipse fill="none" stroke="black" cx="798.38" cy="-1009" rx="224.46" ry="18"/>
<text text-anchor="middle" x="798.38" y="-1005.3" font-family="Times,serif" font-size="14.00">Сложение и умножение комплексных чисел</text>
</a>
</g>
</g>
<!-- complex_forms&#45;&gt;complex_ops -->
<g id="edge44" class="edge">
<title>complex_forms&#45;&gt;complex_ops</title>
<path fill="none" stroke="black" d="M398.02,-1009C450.38,-1009 508.49,-1009 563.82,-1009"/>
<polygon fill="black" stroke="black" points="564.11,-1012.5 574.11,-1009 564.11,-1005.5 564.11,-1012.5"/>
</g>
<!-- complex_Euiler -->
<g id="node38" class="node">
<title>complex_Euiler</title>
<g id="a_node38"><a xlink:href="algebra.html#complex_Euiler" xlink:title="Формула Эйлера">
<ellipse fill="none" stroke="black" cx="798.38" cy="-955" rx="90.98" ry="18"/>
<text text-anchor="middle" x="798.38" y="-951.3" font-family="Times,serif" font-size="14.00">Формула Эйлера</text>
</a>
</g>
</g>
<!-- complex_forms&#45;&gt;complex_Euiler -->
<g id="edge45" class="edge">
<title>complex_forms&#45;&gt;complex_Euiler</title>
<path fill="none" stroke="black" d="M340.47,-995.75C383.04,-991.19 431.32,-986.18 475.36,-982 551.97,-974.73 638.93,-967.5 703.15,-962.35"/>
<polygon fill="black" stroke="black" points="703.57,-965.83 713.26,-961.54 703.01,-958.85 703.57,-965.83"/>
</g>
<!-- complex_conj -->
<g id="node39" class="node">
<title>complex_conj</title>
<g id="a_node39"><a xlink:href="algebra.html#complex_conj" xlink:title="Комплексное сопряжение и деление">
<ellipse fill="none" stroke="black" cx="1418.03" cy="-1040" rx="186.57" ry="18"/>
<text text-anchor="middle" x="1418.03" y="-1036.3" font-family="Times,serif" font-size="14.00">Комплексное сопряжение и деление</text>
</a>
</g>
</g>
<!-- complex_ops&#45;&gt;complex_conj -->
<g id="edge46" class="edge">
<title>complex_ops&#45;&gt;complex_conj</title>
<path fill="none" stroke="black" d="M988.89,-1018.51C1069.58,-1022.56 1163.09,-1027.25 1242.11,-1031.22"/>
<polygon fill="black" stroke="black" points="1242,-1034.72 1252.17,-1031.73 1242.35,-1027.73 1242,-1034.72"/>
</g>
<!-- complex_Moivre -->
<g id="node40" class="node">
<title>complex_Moivre</title>
<g id="a_node40"><a xlink:href="algebra.html#complex_Moivre" xlink:title="Формула Муавра">
<ellipse fill="none" stroke="black" cx="1418.03" cy="-986" rx="92.88" ry="18"/>
<text text-anchor="middle" x="1418.03" y="-982.3" font-family="Times,serif" font-size="14.00">Формула Муавра</text>
</a>
</g>
</g>
<!-- complex_ops&#45;&gt;complex_Moivre -->
<g id="edge47" class="edge">
<title>complex_ops&#45;&gt;complex_Moivre</title>
<path fill="none" stroke="black" d="M1002.05,-1001.45C1107.33,-997.53 1231.35,-992.91 1316.21,-989.75"/>
<polygon fill="black" stroke="black" points="1316.5,-993.25 1326.36,-989.38 1316.24,-986.25 1316.5,-993.25"/>
</g>
<!-- complex_roots -->
<g id="node41" class="node">
<title>complex_roots</title>
<g id="a_node41"><a xlink:href="algebra.html#complex_roots" xlink:title="Корни n&#45;ой степени из комплексного числа">
<ellipse fill="none" stroke="black" cx="219.68" cy="-1063" rx="219.86" ry="18"/>
<text text-anchor="middle" x="219.68" y="-1059.3" font-family="Times,serif" font-size="14.00">Корни n&#45;ой степени из комплексного числа</text>
</a>
</g>
</g>
<!-- main_theorem -->
<g id="node42" class="node">
<title>main_theorem</title>
<g id="a_node42"><a xlink:href="algebra.html#main_theorem" xlink:title="Основная теорема алгебры">
<ellipse fill="none" stroke="black" cx="219.68" cy="-1117" rx="141.88" ry="18"/>
<text text-anchor="middle" x="219.68" y="-1113.3" font-family="Times,serif" font-size="14.00">Основная теорема алгебры</text>
</a>
</g>
</g>
</g>
</svg>
